<?xml version="1.0" encoding="UTF-8"?>
<svg data-bbox="-0.002 0 1151.452 383.57" viewBox="0 0 1151.46 383.57" xmlns="http://www.w3.org/2000/svg" data-type="ugc">
    <g>
        <defs>
            <linearGradient gradientUnits="userSpaceOnUse" gradientTransform="rotate(-178.45 -3929.367 231.536)" y2="380.21" x2="-7852.69" y1="380.21" x1="-8055.79" id="d0990129-418d-47ac-b6ec-f31d8dbe2b46">
                <stop stop-color="#0f0f0f" offset="0"/>
                <stop stop-color="#1d1d1d" offset=".18"/>
                <stop stop-color="#414042" offset=".51"/>
                <stop stop-color="#3b3a3c" offset=".63"/>
                <stop stop-color="#2c2c2d" offset=".78"/>
                <stop stop-color="#141414" offset=".95"/>
                <stop stop-color="#0f0f0f" offset=".98"/>
            </linearGradient>
            <linearGradient gradientUnits="userSpaceOnUse" gradientTransform="scale(1 -1)rotate(1.55 13172.758 -1055.107)" y2="161.57" x2="227.7" y1="161.57" x1="24.59" id="b737da0d-6935-4636-a4e4-9642f92c7f59">
                <stop stop-color="#c19423" offset="0"/>
                <stop stop-color="#cfa025" offset=".15"/>
                <stop stop-color="#f5c02c" offset=".45"/>
                <stop stop-color="#ffc82e" offset=".51"/>
                <stop stop-color="#f9c32d" offset=".62"/>
                <stop stop-color="#eab62a" offset=".75"/>
                <stop stop-color="#d1a125" offset=".9"/>
                <stop stop-color="#c19423" offset=".98"/>
            </linearGradient>
        </defs>
        <path d="M196.06 192.04c0-6.77.86-13.28 2.59-19.51s4.19-12.08 7.39-17.54 7.02-10.43 11.46-14.91q6.66-6.705 14.82-11.46c5.44-3.16 11.27-5.62 17.51-7.38s12.74-2.64 19.52-2.64 13.2.88 19.47 2.64 12.12 4.22 17.56 7.38a72.3 72.3 0 0 1 14.87 11.46q6.72 6.705 11.46 14.91c3.17 5.46 5.63 11.31 7.39 17.54s2.64 12.73 2.64 19.51-.88 13.28-2.64 19.51-4.22 12.05-7.39 17.45-6.99 10.32-11.46 14.76a75.2 75.2 0 0 1-14.87 11.46c-5.44 3.2-11.29 5.66-17.56 7.38-6.27 1.73-12.76 2.59-19.47 2.59s-13.29-.86-19.52-2.59c-6.24-1.73-12.07-4.18-17.51-7.38a73 73 0 0 1-14.82-11.46A73.8 73.8 0 0 1 206.04 229c-3.2-5.4-5.66-11.22-7.39-17.45s-2.59-12.73-2.59-19.51m37.1-.09c0 5.31.89 10.26 2.68 14.86s4.29 8.61 7.52 12.03c3.22 3.42 7.04 6.1 11.44 8.05s9.25 2.92 14.55 2.92 10.16-.97 14.6-2.92c4.43-1.95 8.26-4.63 11.49-8.05 3.22-3.42 5.73-7.43 7.51-12.03 1.79-4.6 2.68-9.55 2.68-14.86s-.89-10.18-2.68-14.81-4.29-8.68-7.51-12.13-7.05-6.17-11.49-8.15-9.3-2.97-14.6-2.97-10.15.99-14.55 2.97-8.22 4.7-11.44 8.15-5.73 7.49-7.52 12.13c-1.79 4.63-2.68 9.57-2.68 14.81" fill="#0f0f0f"/>
        <path d="M383.45 261.07c-.7-1.15-1.33-2.33-1.87-3.55-.54-1.21-1.07-2.46-1.58-3.74l-49.18-128.74c0-.32-.05-.61-.14-.86-.1-.25-.14-.51-.14-.77 0-1.79 1.18-2.68 3.55-2.68h30.87c2.43 0 4.09 1.21 4.98 3.64l29.24 87.24c2.62-7.29 5.13-14.55 7.53-21.81 2.4-7.25 4.76-14.52 7.09-21.81s4.7-14.55 7.09-21.81c2.4-7.25 4.9-14.52 7.53-21.81.89-2.43 2.65-3.64 5.27-3.64h30.2c1.47 0 2.51.27 3.12.82.61.54.91 1.26.91 2.16 0 .51-.03.86-.1 1.05v.29l-49.47 128.74c-.32.9-.7 1.89-1.15 2.97-.45 1.09-.96 2.09-1.53 3.02-.58.93-1.25 1.71-2.01 2.35-.77.64-1.63.96-2.59.96h-23.68q-2.97 0-3.93-2.01Z" fill="#0f0f0f"/>
        <path d="M474.99 125.13c0-1.34.37-2.41 1.1-3.21s1.77-1.2 3.11-1.2h95.11c1.4 0 2.49.41 3.26 1.24s1.15 1.94 1.15 3.34v23.71c0 1.08-.38 2.12-1.15 3.11s-1.89 1.48-3.36 1.48h-62.12v23.77h47.93c1.21 0 2.22.29 3.02.86.8.58 1.2 1.53 1.2 2.88v20.71c0 .9-.35 1.76-1.05 2.59s-1.73 1.25-3.07 1.25h-48.03v24.54h64.42c2.88 0 4.31 1.47 4.31 4.4v24.09c0 .64-.26 1.21-.77 1.72-.26 1.79-1.57 2.68-3.93 2.68h-96.93c-1.28 0-2.3-.34-3.06-1.01-.77-.67-1.15-1.71-1.15-3.12V125.13Z" fill="#0f0f0f"/>
        <path d="M588.15 125.13q0-2.01 1.05-3.21c.7-.8 1.76-1.2 3.16-1.2h61.93c6.58 0 12.75 1.23 18.5 3.69s10.77 5.8 15.05 10.02 7.65 9.15 10.11 14.81 3.69 11.68 3.69 18.07c0 4.35-.59 8.48-1.77 12.41a46 46 0 0 1-4.94 11.02 46.8 46.8 0 0 1-7.53 9.3 49.3 49.3 0 0 1-9.54 7.14l24.64 46.4c.45.9 1.02 1.95 1.73 3.16.7 1.21 1.05 2.27 1.05 3.16 0 1.02-.33 1.81-1.01 2.35q-1.005.81-2.73.81h-32.88a4.76 4.76 0 0 1-2.92-.96c-.86-.64-1.42-1.5-1.68-2.59l-23.29-43.81h-15.53v43.23c0 2.75-1.47 4.12-4.41 4.12h-28.47c-1.28 0-2.3-.34-3.07-1.01s-1.15-1.71-1.15-3.12V125.13zm75.06 42.57c0-1.92-.35-3.83-1.05-5.75s-1.69-3.67-2.97-5.27-2.81-2.94-4.6-4.03-3.77-1.79-5.94-2.11c-1.79-.13-3.47-.24-5.03-.34-1.57-.1-3.28-.14-5.13-.14h-13.23v35.18h17.64c1.15 0 2.17-.03 3.07-.1.89-.06 1.88-.16 2.97-.29 2.24-.25 4.25-.91 6.04-1.97 1.79-1.05 3.29-2.36 4.51-3.93 1.21-1.57 2.14-3.32 2.78-5.27s.96-3.95.96-5.99h-.02Z" fill="#0f0f0f"/>
        <path d="M708.4 124.93q0-1.905 1.29-3.06c.86-.76 1.93-1.15 3.21-1.15h103.15c1.15 0 2.17.35 3.07 1.05q1.335 1.05 1.53 3.15v23.8q0 1.725-1.2 3.3c-1.2 1.575-1.93 1.58-3.4 1.58h-33.07v104.97c0 1.15-.41 2.19-1.24 3.12s-1.91 1.39-3.25 1.39h-28.11c-1.08 0-2.1-.43-3.06-1.3-.96-.86-1.43-1.94-1.43-3.21V153.6h-32.98c-1.28 0-2.35-.41-3.21-1.24q-1.29-1.245-1.29-3.63v-23.8z" fill="#0f0f0f"/>
        <path d="M828.32 124.94q0-1.725 1.05-2.97c1.05-1.245 1.76-1.25 3.16-1.25h28.18c.96 0 1.98.38 3.07 1.15s1.63 1.79 1.63 3.07v133.92c0 2.81-1.57 4.22-4.7 4.22h-28.18c-2.81 0-4.22-1.41-4.22-4.22V124.94z" fill="#0f0f0f"/>
        <path d="M887.6 124.94c.13-1.15.58-2.14 1.34-2.97.77-.83 1.85-1.25 3.26-1.25h33.17c2.36 0 3.9 1.21 4.6 3.64l26.08 87.04 26.27-87.04c.89-2.43 2.52-3.64 4.89-3.64H1020q1.725 0 3.12 1.2c.93.8 1.45 1.81 1.58 3.02 2.24 22.5 4.52 44.82 6.85 66.96s4.62 44.47 6.85 66.96v.48c0 2.49-1.41 3.74-4.22 3.74h-27.13c-2.94 0-4.47-1.41-4.6-4.22l-8.34-74.1-21.57 74.58c-.13.64-.59 1.41-1.39 2.3-.8.9-1.58 1.34-2.35 1.34h-25.21c-.77 0-1.58-.43-2.44-1.29s-1.33-1.64-1.39-2.35l-21.57-74.39-8.34 73.91c-.13 2.81-1.69 4.22-4.7 4.22h-27.13c-2.75 0-4.12-1.41-4.12-4.22l13.71-133.92Z" fill="#0f0f0f"/>
        <path d="M1045.62 125.13c0-1.34.37-2.41 1.1-3.21s1.77-1.2 3.11-1.2h95.11c1.4 0 2.49.41 3.26 1.24s1.15 1.94 1.15 3.34v23.71c0 1.08-.38 2.12-1.15 3.11s-1.89 1.48-3.36 1.48h-62.12v23.77h47.93c1.21 0 2.22.29 3.02.86.8.58 1.2 1.53 1.2 2.88v20.71c0 .9-.35 1.76-1.05 2.59s-1.73 1.25-3.07 1.25h-48.03v24.54h64.42c2.88 0 4.31 1.47 4.31 4.4v24.09c0 .64-.26 1.21-.77 1.72-.26 1.79-1.57 2.68-3.93 2.68h-96.93c-1.28 0-2.3-.34-3.06-1.01-.77-.67-1.15-1.71-1.15-3.12V125.13z" fill="#0f0f0f"/>
        <path fill="#0f0f0f" d="M186.92 3.15H9.13L9.55 0h176.99z"/>
        <path fill="#0f0f0f" d="M9.03 380.42h178.06l-.42 3.15H9.4z"/>
        <path d="M.91 47.64C2.21 29.76 8.94 2.58 9.52.03c.02-.1.02.06 0 .43-1.27 21.5.84 43.11 6.94 63.76 9.01 30.48 13.98 46.97 44.85 77.43 24.6 24.27 26.33 18.3 70.05 51.05 43.07 32.27 69.72 96.5 63.91 143.26-1.3 17.88-7.99 45.21-8.61 47.61 6.16-50.46-18.57-107.35-51.79-141.62-27.77-28.64-54.02-39.64-70.05-51.06C17.33 157.06-4.9 94.4.91 47.64" fill="url(#d0990129-418d-47ac-b6ec-f31d8dbe2b46)"/>
        <path d="M195.15 47.64c-1.3-17.88-8.03-45.05-8.61-47.61-.02-.1-.02.06 0 .43 1.27 21.5-.84 43.11-6.94 63.76-9.01 30.48-13.98 46.97-44.85 77.43-24.6 24.27-26.33 18.3-70.05 51.05C21.63 224.97-5.02 289.2.79 335.96c1.3 17.88 7.99 45.21 8.61 47.61-6.16-50.46 18.57-107.35 51.79-141.62 27.77-28.64 54.02-39.64 70.05-51.06 47.49-33.84 69.72-96.5 63.91-143.26Z" fill="url(#b737da0d-6935-4636-a4e4-9642f92c7f59)"/>
        <path d="M466.24 289.02v38.86h-5.11V298.9l-12.92 28.98h-3.59l-12.97-29.03v29.03h-5.11v-38.86h5.5l14.38 32.12 14.38-32.12h5.45Z"/>
        <path d="M492.35 292.9v13.08h14.26v4.21h-14.26v13.48h15.95v4.21h-21.06v-39.2h21.06v4.21h-15.95Z"/>
        <path d="M559.17 327.88h-5.11l-20.55-31.17v31.17h-5.11v-39.2h5.11l20.55 31.11v-31.11h5.11z"/>
        <path d="M585.71 326.9c-2.04-.92-3.64-2.19-4.8-3.82q-1.74-2.445-1.8-5.64h5.45c.19 1.83.95 3.38 2.27 4.63 1.33 1.25 3.27 1.88 5.81 1.88s4.35-.61 5.76-1.83c1.4-1.22 2.11-2.78 2.11-4.69 0-1.5-.41-2.71-1.24-3.65q-1.23-1.41-3.09-2.13c-1.86-.72-2.9-1.01-5-1.57-2.58-.67-4.65-1.35-6.21-2.02-1.55-.67-2.88-1.73-3.99-3.17-1.1-1.44-1.66-3.38-1.66-5.81 0-2.13.54-4.02 1.63-5.67s2.61-2.92 4.58-3.82c1.96-.9 4.22-1.35 6.77-1.35 3.67 0 6.67.92 9.01 2.75s3.66 4.27 3.96 7.3h-5.62c-.19-1.5-.97-2.82-2.36-3.96-1.38-1.14-3.22-1.71-5.5-1.71-2.13 0-3.87.55-5.22 1.66-1.35 1.1-2.02 2.65-2.02 4.63 0 1.42.4 2.58 1.21 3.48.8.9 1.8 1.58 2.98 2.05s2.84 1 4.97 1.6c2.58.71 4.66 1.41 6.23 2.11 1.57.69 2.92 1.76 4.04 3.2s1.68 3.4 1.68 5.87c0 1.91-.5 3.71-1.52 5.39s-2.51 3.05-4.49 4.1c-1.99 1.05-4.32 1.57-7.02 1.57s-4.9-.46-6.94-1.38Z"/>
        <path d="M683.05 288.74v39.14h-5.11v-17.75H658v17.75h-5.11v-39.14H658v17.18h19.94v-17.18z"/>
        <path d="M709.22 292.9v13.08h14.26v4.21h-14.26v13.48h15.95v4.21h-21.06v-39.2h21.06v4.21h-15.95Z"/>
        <path d="M768.4 319.18h-17.07l-3.14 8.7h-5.39l14.15-38.92h5.9l14.09 38.92h-5.39l-3.14-8.7Zm-1.46-4.16-7.08-19.77-7.08 19.77h14.15Z"/>
        <path d="M800.58 323.73h13.7v4.16h-18.81v-39.14h5.11z"/>
        <path d="M856.17 288.74v4.16H845.5v34.98h-5.11V292.9h-10.73v-4.16h26.5Z"/>
        <path d="M904.97 288.74v39.14h-5.11v-17.75h-19.94v17.75h-5.11v-39.14h5.11v17.18h19.94v-17.18z"/>
    </g>
</svg>
