<?xml version="1.0" encoding="utf-8"?>
<svg version="1.0" id="Layer_1" xmlns="http://www.w3.org/2000/svg" xmlns:xlink="http://www.w3.org/1999/xlink" x="0px" y="0px"
	 viewBox="0 0 3593 811" style="enable-background:new 0 0 3593 811;" xml:space="preserve">
<style type="text/css">
	.st0{fill:#FEFEFE;}
	.st1{fill:#146EB5;}
	.st2{fill:#FE931F;}
</style>
<g>
	<path class="st0" d="M3453.49,576.07l-32.52-0.21c-27.47-1.31-54.15-8.31-63.98-36.98c-4.22-12.3-6.59-24.92-6.6-38.5l-0.18-306.84
		l103.05-0.05l0.13-32.49l-103.15-0.04l-0.04-113.66l-37.38,0l-0.17,113.9l-67.54,0.05l0.06,32.21l67.8,0.14l0.24,308.16
		c0.01,18.18,3.45,35.12,9.4,51.54c8.13,22.43,24.66,39.06,46.83,47.32c27.4,10.21,55.01,8.88,83.96,8.78L3453.49,576.07z
		 M663.31,597.19c50.85,15.69,105.63,15.08,155.56-0.88c73.17-23.39,128.4-81.37,147.83-155.71c12.8-48.99,10.9-101.62-5.57-149.56
		c-22.53-65.55-73.76-115.55-139.95-136.3c-51.47-16.14-108.01-15.8-159.34,0.71c-62.37,20.07-111.08,66.28-134.38,127.27
		c-23.14,60.58-22.13,134.77,3.19,194.52C555.11,534.98,602.71,578.5,663.31,597.19z M1317.98,574.93
		c20.92-14.64,36.9-34.18,45.64-58.35c10.53-29.11,10.25-60.69-0.73-89.55c-22.91-60.19-94.12-78.62-149.69-93.3
		c-16.4-4.33-32.11-8.17-48.04-13.78c-20.78-7.32-46.09-19.17-44.95-44.26c1.1-24.43,22.31-35.19,44.67-38.05
		c41.69-5.7,86.53,9.22,90.39,56.9l112.06-0.05c-0.84-16.88-4.01-32.17-9.35-47.53c-18.87-53.48-64.71-87.26-119.5-98.56
		c-41.36-8.53-84.11-7.3-124.72,4.27c-64.51,18.38-112.76,67.63-106.98,138.32c7.09,86.79,89.8,108.52,160.01,126.31
		c24.53,6.21,58.69,13.72,78.45,28.4c13.09,9.73,17.6,25.62,10.86,40.85c-13.27,29.99-62.56,33.71-90.24,25.88
		c-13.74-4.16-25.73-10.52-35.64-20.62c-9.46-9.78-15.34-21.72-16.69-35.57l-117.66,0.09c1.46,31.59,12.92,59.93,32.28,83.54
		c13.58,16.51,29.58,29.3,48.05,39.97c20.78,11.49,42.31,19.45,65.94,23.93C1198.91,614.55,1269.4,608.93,1317.98,574.93z
		 M1711.73,456.78c-10.43,22.9-27.78,39.98-50.85,48.24c-23.2,7.73-47.51,7.92-70.97,1.16c-43.01-13.13-67.83-51.08-71.54-94.66
		l326.48,0.04c9.81-64.97-0.27-133.65-40.65-186.75c-27.1-35.02-64.05-60.03-106.98-72.14c-47.95-13.52-99.57-13.09-147.16,1.19
		c-56.2,16.87-101.6,55.72-126.61,108.49c-23.96,50.55-29.25,110.13-19.64,164.84c13.26,75.48,59.84,137.25,131.88,165.03
		c57.52,22.18,127.68,22.05,184.56-1.87c57.83-23.9,100.66-72.54,117.19-133.54L1711.73,456.78z M2176.16,575.36
		c36.69-29.09,51.75-77.06,36.83-121.59c-6.26-18.69-18.95-33.4-35.02-44.69c-73.92-51.92-222.28-37.6-229.56-133.03
		c-1.64-21.46,5.49-41.5,20.58-57.24c35.21-36.72,95.71-40.8,141.53-25.31c40.98,13.86,66.24,47.92,68.84,90.97l36.76,0.05
		c-3.14-63.61-42.2-109.17-104.16-124.35c-62.18-15.23-138.79-4.73-179.96,48.81c-16.37,21.29-22.57,46.38-20.16,73.01
		c9.21,101.76,130.37,106.49,206.5,134.43c32.67,11.99,63.5,30.58,64.18,69.66c0.86,49.65-39.09,82.11-85.84,88.66
		c-36.53,5.12-86.25-0.29-117.69-21.57c-24.3-15.77-39.42-41.02-42.04-70.16l-37.62-0.01c4.92,59.39,45.92,100.74,102.41,116.34
		C2058.83,615.09,2127.87,613.65,2176.16,575.36z M2931.27,596.99c48.03,15.56,99.81,15.55,147.38,0.87
		c58.98-18.2,105.23-61.11,128.44-117.99c24.81-60.8,24.74-139.09-0.21-199.8c-22.85-55.59-68-97.35-125.64-115.26
		c-48.17-14.97-100.82-14.74-148.92,0.61c-76.26,24.34-125.98,87.16-139.35,165.21c-9.25,53.97-3.94,113.62,20.16,163.37
		C2836.88,543.04,2878.72,579.96,2931.27,596.99z M3514.26,609.27l-0.21-44.58c4.51-0.99,8.64-0.09,13.16-0.47
		c0.42-2.4,0.69-4.85-0.14-7.2l-34.9-0.04c-0.37,2.72-0.5,5.07,0.34,7.28c4.31,0.28,8.16-0.51,12.84,0.45l-0.03,44.58
		C3508.37,609.63,3510.82,609.75,3514.26,609.27z"/>
	<path class="st1" d="M470,0l0.01,601.51l-118.34,0l-0.6-60.85c-38.09,51.14-98.38,72-161.06,67.37
		c-52.45-3.87-100.02-28.26-133.85-68.26C21.58,498.9,5.52,449.93,0.85,397c-0.09-1.07,0.19-2.11-0.85-2v-37
		c0-4.3,1.22-9.41,1.7-14.43c3.43-36.32,13.82-71.16,32.19-102.46c31.2-53.17,83.97-88.23,145.15-96.35
		c48.42-6.43,97.12,4.39,137.54,31.77c13.05,8.84,23.55,18.95,34.9,31.34L351,0H470z M264.44,501.85
		c38.59-9.87,67.9-37.7,80.07-75.4c10.67-33.07,10.57-69.5-0.48-102.43c-13.38-39.89-46.29-68.15-87.17-75.76
		c-57.05-10.62-112.33,22.33-129.96,77.84c-9.44,29.72-9.82,61.83-1.38,92.2C142.5,479.42,201.72,517.89,264.44,501.85z"/>
	<path class="st0" d="M351,0l0.47,207.88c-11.35-12.4-21.85-22.5-34.9-31.34c-40.42-27.38-89.12-38.2-137.54-31.77
		c-61.18,8.12-113.95,43.18-145.15,96.35C15.51,272.42,5.12,307.25,1.7,343.57C1.22,348.59,0,353.7,0,358V0H351z"/>
	<path class="st2" d="M2338.82,811h-36.64l-0.23-651.07l37-0.14l0.23,114.55c22.23-59.39,71.46-99.57,132.88-114.31
		c41.26-9.21,84.02-8.14,124.45,4.26c75,23,123.47,84.28,137.77,160.33c7.3,38.83,7.03,78.05-0.98,116.72
		c-15.45,74.59-64,134.56-137.71,157.22c-37.08,11.4-75.94,13.07-114.13,6.12c-65.39-12.82-117.67-53.77-142.32-116.13L2338.82,811z
		 M2582.51,565.85c39.84-13.26,71.87-40.03,92.39-75.87c26.49-46.28,32.14-104.6,22.62-156.33
		c-11.68-63.51-51.05-115.87-112.94-137.11c-36.56-12.55-75.88-13.99-113.33-4.29c-65.68,17.01-111.71,69.08-126.53,134.62
		c-8.08,35.76-8.06,72.32,0.2,108.08c15.1,65.39,60.87,117.5,126.53,134.58C2507.96,579.03,2546.12,577.96,2582.51,565.85z"/>
	<path class="st2" d="M3593,557.35v51.61c-2.71,0.67-5.81,0.96-8.62,0.13l-0.56-37.54l-16.73,37.46c-2.3,0.83-4.77,0.94-6.86-0.17
		l-16.82-38.08l-0.25,38.41c-2.45,0.67-4.87,0.47-7.59-0.02l-0.1-51.75c3.73-0.65,7.29-0.77,10.85,0.04l17.52,41.01l18.24-41.25
		C3586.12,556.75,3589.57,556.89,3593,557.35z"/>
	<path class="st1" d="M1711.73,456.78l125.72,0.04c-16.53,61-59.36,109.63-117.19,133.54c-56.88,23.92-127.04,24.06-184.56,1.87
		c-72.05-27.79-118.63-89.56-131.88-165.03c-9.61-54.71-4.32-114.29,19.64-164.84c25.01-52.77,70.42-91.62,126.61-108.49
		c47.59-14.29,99.22-14.71,147.16-1.19c42.93,12.1,79.87,37.11,106.98,72.14c40.38,53.1,50.46,121.78,40.65,186.75l-326.48-0.04
		c3.71,43.58,28.53,81.53,71.54,94.66c23.46,6.76,47.76,6.58,70.97-1.16C1683.95,496.76,1701.29,479.69,1711.73,456.78z
		 M1519.48,331.75l207.48,0.01c-1.04-35.94-22.05-67.23-54.94-81.91c-24.63-11-51.78-12.94-78.04-6.78
		C1551.56,253.94,1524.88,290.06,1519.48,331.75z"/>
	<path class="st1" d="M663.31,597.19c-60.6-18.7-108.2-62.22-132.67-119.96c-25.32-59.75-26.33-133.94-3.19-194.52
		c23.3-60.99,72.01-107.2,134.38-127.27c51.33-16.51,107.87-16.85,159.34-0.71c66.19,20.75,117.42,70.76,139.95,136.3
		c16.48,47.94,18.38,100.57,5.57,149.56c-19.43,74.35-74.66,132.32-147.83,155.71C768.95,612.28,714.16,612.88,663.31,597.19z
		 M844.37,435.43c23.77-59.95,8.95-153.83-58.31-181.6c-25.1-10.36-52.69-11.27-78.6-3.48c-43.9,13.2-69.08,50.39-75.73,94.57
		c-5.85,38.87-1.49,83.84,21.14,117.05c14.16,20.77,34.55,35.23,59.11,41C767.6,516.04,822.77,489.91,844.37,435.43z"/>
	<path class="st1" d="M1317.98,574.93c-48.59,34-119.07,39.62-175.83,28.85c-23.63-4.48-45.16-12.44-65.94-23.93
		c-18.47-10.67-34.47-23.46-48.05-39.97c-19.36-23.62-30.82-51.95-32.28-83.54l117.66-0.09c1.35,13.85,7.23,25.79,16.69,35.57
		c9.9,10.1,21.9,16.46,35.64,20.62c27.68,7.83,76.97,4.11,90.24-25.88c6.74-15.23,2.23-31.11-10.86-40.85
		c-19.75-14.68-53.92-22.19-78.45-28.4c-70.21-17.78-152.92-39.51-160.01-126.31c-5.78-70.7,42.47-119.94,106.98-138.32
		c40.61-11.57,83.36-12.8,124.72-4.27c54.79,11.3,100.63,45.08,119.5,98.56c5.34,15.36,8.51,30.65,9.35,47.53l-112.06,0.05
		c-3.86-47.68-48.7-62.61-90.39-56.9c-22.36,2.86-43.57,13.62-44.67,38.05c-1.13,25.09,24.17,36.94,44.95,44.26
		c15.94,5.61,31.64,9.44,48.04,13.78c55.57,14.68,126.78,33.11,149.69,93.3c10.99,28.86,11.26,60.45,0.73,89.55
		C1354.88,540.74,1338.9,560.29,1317.98,574.93z"/>
	<path class="st2" d="M2931.27,596.99c-52.55-17.03-94.39-53.95-118.15-102.99c-24.1-49.75-29.41-109.4-20.16-163.37
		c13.38-78.05,63.09-140.87,139.35-165.21c48.1-15.35,100.75-15.58,148.92-0.61c57.64,17.91,102.79,59.67,125.64,115.26
		c24.95,60.71,25.02,139,0.21,199.8c-23.21,56.88-69.46,99.79-128.44,117.99C3031.08,612.54,2979.3,612.56,2931.27,596.99z
		 M2943.02,565.41c43.62,14.86,90.7,13.73,133.16-2.1c45.36-16.91,79.91-51.73,97.4-96.71c20.17-51.89,20.12-121.01-0.15-172.81
		c-17.77-45.4-53.05-80.09-99.17-96.38c-43.08-15.21-90.59-15.41-133.72-0.04c-63.16,22.51-100.88,76.07-110.88,141.25
		c-7.34,47.79-2.78,101.75,19.43,145.39C2868.65,522.47,2901.49,551.26,2943.02,565.41z"/>
	<path class="st2" d="M2176.16,575.36c-48.29,38.29-117.33,39.73-174.41,23.97c-56.49-15.6-97.49-56.95-102.41-116.34l37.62,0.01
		c2.62,29.15,17.74,54.39,42.04,70.16c31.44,21.27,81.17,26.69,117.69,21.57c46.76-6.56,86.71-39.02,85.84-88.66
		c-0.68-39.08-31.51-57.67-64.18-69.66c-76.13-27.93-197.29-32.67-206.5-134.43c-2.41-26.62,3.78-51.72,20.16-73.01
		c41.18-53.54,117.78-64.05,179.96-48.81c61.96,15.18,101.02,60.74,104.16,124.35l-36.76-0.05c-2.6-43.05-27.86-77.12-68.84-90.97
		c-45.82-15.49-106.33-11.41-141.53,25.31c-15.09,15.74-22.22,35.79-20.58,57.24c7.29,95.44,155.64,81.11,229.56,133.03
		c16.07,11.29,28.76,26,35.02,44.69C2227.9,498.3,2212.85,546.27,2176.16,575.36z"/>
	<path class="st2" d="M3453.49,576.07l-0.1,33.34c-28.95,0.1-56.56,1.43-83.96-8.78c-22.17-8.26-38.7-24.89-46.83-47.32
		c-5.95-16.42-9.39-33.36-9.4-51.54l-0.24-308.16l-67.8-0.14l-0.06-32.21l67.54-0.05l0.17-113.9l37.38,0l0.04,113.66l103.15,0.04
		l-0.13,32.49l-103.05,0.05l0.18,306.84c0.01,13.58,2.39,26.2,6.6,38.5c9.83,28.67,36.51,35.67,63.98,36.98L3453.49,576.07z"/>
	<path class="st2" d="M3514.26,609.27c-3.45,0.48-5.89,0.36-8.93,0.01l0.03-44.58c-4.68-0.96-8.52-0.17-12.84-0.45
		c-0.84-2.2-0.71-4.55-0.34-7.28l34.9,0.04c0.83,2.35,0.56,4.79,0.14,7.2c-4.52,0.38-8.65-0.52-13.16,0.47L3514.26,609.27z"/>
</g>
</svg>
