<?xml version="1.0" encoding="UTF-8"?>
<svg data-bbox="5.805 9.481 3501.883 633.934" viewBox="0 0 3517.3 647.58" xmlns="http://www.w3.org/2000/svg" data-type="ugc">
    <g>
        <path fill="#ffffff" d="M2991.16 48.02c6.73-50.04 88.8-52.49 96.97-.65 3.39 109.35-2.66 219.14.48 328.46.16 5.58 2.27 11.15 2.48 16.52 3.74 94.05-38.15 175.65-121.71 220.54-114.38 61.45-259.49 16.49-317.03-99.22l-2.43-.73c-21.5 39.38-53.32 73.48-92.41 95.94-133.92 76.94-304.67 5.89-342.24-143.44-44.53-177.02 129.88-328.02 300.87-270.79 37.79 12.65 123.6 58.4 97.11 108.89-52.63 58.11-111.34 111.38-166.67 167.24-42.67 34.33-102.32-21.88-61.88-67.73 4.58-5.2 10.32-9.01 14.93-13.59 32.49-32.35 64.21-65.88 97.44-97.44 1.68-1.59 7.08-4.3 6.57-6.48-78.16-41.23-181.6 5.96-201.57 92-27.21 117.25 90.74 210.43 199.61 161.35 94.08-42.41 115.11-202.05 183.27-278.91 77.39-87.26 210.14-103.08 306.21-36.8zm-141.75 223c-108.1 7.64-171.42 128.16-108.93 219.71 15.72 23.04 54.04 49.84 81.05 56.81 62.97 16.23 129.58-10.51 161.5-67.07 55.66-98.61-21.35-217.38-133.63-209.45Z"/>
        <path fill="#15a97a" d="M213.99 186.71c62.96-5.13 135.16 14.92 180.41 60.2 50.64 50.68-4 81.35-39.29 116.36-37.38 37.09-74.13 74.8-112.32 111.08-42.76 32.88-98.49-21.44-64.25-64.17l122.48-121.1c-69.57-35.55-156.4-6.51-191.63 62.73-49.23 96.71 29.21 210.82 136.35 203.86 145.49-9.45 156.38-202.5 237.81-293.32 110.63-123.39 316.55-91.49 384.35 59.14 80.9 179.76-89.38 365.35-276.46 312.9-26.88-7.53-87-36.82-99.17-62.46-12.26-25.82 8.22-56.84 35.42-60.06 34.22-4.04 57.59 31.64 92.97 39.89 103.33 24.12 197.52-62.95 174.91-167.55-26.58-122.98-189.63-149.61-260.06-45.02-52.38 77.79-67 177.96-141.71 244.42C260.75 701.96 47.45 634.79 10.52 460.47c-27.73-130.93 70.31-262.92 203.47-273.76"/>
        <path fill="#ffffff" d="M2179.65 621.64c-20.42 28-64.52 21.74-76.75-10.73-3.38-8.97-3.34-12.57-3.5-21.34-1.06-56.95-1.96-114.05-1.3-171.1.39-33.61-4.54-55.95-23.95-84.03-73.11-105.78-240.62-51-236.35 75.72-4.12 58.89 5.31 124.92 0 182.97-1.87 20.44-12.47 39.14-32.69 45.73-12.86 4.19-23.21 3.27-35.52-2.65-14.46-6.95-23.61-22.97-25.63-38.53-3.26-65.86 3.84-135.13-.1-200.59-2.86-47.55-41.82-94.36-86.2-109.85-92.44-32.26-171.89 36.66-176.62 128.91-2.51 48.92-.26 102.62-.06 152.04.07 18.3 4.28 36.63-7.12 53.1-23.29 33.65-76.17 20.99-82.06-18.67 2.69-68.53-3.46-139.61.05-207.84 3.02-58.66 37.19-121.92 82.66-158.51 85.22-68.57 208.61-64.81 288.94 9.43 6.88 6.36 14.39 16.71 20.74 22.03 9.52 7.98 11.47-1.64 16.66-7.19 82.88-88.61 214.62-101.85 309.21-22.56 108.72 91.14 75.72 229.52 80.88 355.12-2.47 12.19-3.94 18.45-11.29 28.52Z"/>
        <path fill="#ffffff" d="M3260.84 184.34c47.28-2.01 94.88.65 142.19-.2 52.94 5.52 50.99 83.36.19 87.77-53.14 4.61-113.04-4.09-166.57-.09-32.68 2.44-53.09 42.44-37.64 70.94 5.53 10.21 20.64 23.65 32.27 25.96 26.48 5.27 66.72-2.83 94.65.47 176.43-3.44 201 239.94 27.23 270.73-64.22-.96-133.55 5.44-197.38 1.31-21.22-1.37-38-10.81-44-32.06-6.95-24.64 9.25-51.46 35.69-53.54 62.67-4.92 131.66 3.82 194.99-.02 30.78-6.03 50.2-28.77 45.74-60.99-2.13-15.37-21.62-35.73-37.35-37.51-26.67-3.02-60.26 1.23-88.04.05-33.25-1.41-63.75-5.88-92-24.5-79.48-52.42-80.73-170.24-1.67-223.52 28.86-19.45 57.55-23.35 91.69-24.81Z"/>
        <path fill="#15a97a" d="M1349.81 622.97c-5.05 7.13-20.03 16.1-28.74 17-30.25 3.1-50.95-16.04-52.95-45.65-4.25-62.79 3.27-130.37.09-193.66-7.63-79.92-85.13-139.98-164.93-118.32-58.35 15.84-95.11 67.27-99.07 126.68-4.08 61.17 4.81 128.13.03 188.84-2.16 27.36-24.9 44.7-51.75 42.09-5.8-.56-20.17-7.31-24.45-11.21-8.12-7.39-13.48-22.49-14.26-33.26-4.43-61.03 3.45-127.32 0-188.91 4.07-196.71 244.9-298.17 383.57-151.4 87.14 92.23 58.71 218.65 63.62 334.37-2.34 10.79-4.71 24.29-11.16 33.41Z"/>
        <path fill="#ffffff" d="M3471.64 141.71c42.9-6.11 48.58 55.69 11.27 61.13-43.64 6.36-49.86-55.63-11.27-61.13m2.39 4.73c-39.43 4.87-22.52 66.8 14.59 49.03 26-12.45 13.38-52.48-14.59-49.03"/>
        <text transform="translate(3465.44 185.5)" font-family="Poppins-Regular,Poppins" font-size="40" fill="#ffffff"><tspan y="0" x="0">R</tspan></text>
    </g>
</svg>
