<?xml version="1.0" encoding="UTF-8"?>
<svg data-bbox="28.99 27.785 3554.578 1150.567" viewBox="0 0 3600 1217.47" xmlns="http://www.w3.org/2000/svg" data-type="color">
    <g>
        <path d="M671.55 837.23c138.18 128.47 376.65 77.76 464-84.67l22.66-47.87c-56.01 316.93-360.04 523.42-677.5 463.24-223.64-42.39-409.39-224.91-451.72-448.89l22.89 42.85c134.22 204.51 401.56 194.34 532.2-10.53 83.78-131.38 112.32-373.24 323.43-333 205.37 39.15 193.13 356.26-25.64 372.38-74.1 5.46-84.64-18.79-140.12-48.81-30.51-16.51-63.26-14.09-84.54 15.56-22.6 31.49-10.52 56.61 14.34 79.73Z" fill="#15a97a" data-color="1"/>
        <path d="M999.49 196.07c81.98 82.16 139.23 190.49 158.72 305.3l-32.48-64.36c-117.11-179.96-377.41-190.25-505.37-15.31-70.33 96.15-104.29 270.71-199.24 336.58-106 73.55-261.05 16.44-289.6-109.48-35.95-158.53 116.23-280.77 263.49-216.75l-2.35 5.98c-43.25 46.1-92.67 88.59-135.25 135.07-10.27 11.21-27.72 28.34-32.38 41.77-19.69 56.68 47.78 107.15 95.88 69.54 63.27-73.26 152.18-139.24 212.93-212.87 48.19-58.42-21.92-109.59-69.39-136.43-148.18-83.8-331.63-29.27-416.75 114.44l-18.71 37.47c29.19-154.19 128.14-292.15 260.96-374.11C516.22-26.7 812.29 8.45 999.49 196.07" fill="#15a97a" data-color="1"/>
        <path d="M1962.12 852.98v235.59c0 4.53-11.9 23.19-15.72 27.33-36.53 39.52-105.59 16.75-111.18-36.8 7.31-162.76-9.38-333.49-.02-495.32 15.8-273.23 370.63-384.08 540.76-169.64 204.13 257.3-88.03 608.64-380.4 456.82-11.06-5.74-21.56-15.98-33.44-17.99Zm157.43-436.99c-166.29 15.49-230.32 225.34-102.43 332.97 91.19 76.74 234.58 48.01 289.93-57.03 70.82-134.4-38.05-289.86-187.5-275.94" fill="#000000" data-color="2"/>
        <path d="M1487.91 296.39c122.53-6.44 241.04 68.67 290.4 179.46 49.3 110.66 20.47 243.56 28.4 361.68-10.08 79.17-112.36 94.17-137.81 15.59-14.64-105.9 31.64-275.81-42.9-361.33-64.41-73.9-182.74-74.61-247.72-1.23-77.08 87.05-28.49 251.28-43.21 358.62-10.35 75.44-127.73 72.69-136.26-4.48 5.03-88.93-6.41-184.61.13-272.73 11.07-149.17 141.75-267.85 288.97-275.58" fill="#000000" data-color="2"/>
        <path d="M3253.6 303.58c220.61-17.46 388.01 197.05 310.9 406.48-80.71 219.23-373.3 267.89-520.9 86.64-153.73-188.79-31.45-474.01 209.99-493.12Zm-.01 114.79c-89.69 9.14-162.66 93.09-164.69 182.14-3.66 159.82 185.91 252.85 309.88 151.95 148.19-120.6 48.21-353.81-145.19-334.1Z" fill="#000000" data-color="2"/>
        <path d="M2654.37 461.54c-104.74 92.1-54.09 269.5-65.31 395.12-6.09 68.25-109.82 73.22-117.31-2.51 5.27-94.71-8.2-198.21 2.41-291.74 24.95-220.04 277.17-343.89 460.53-209.33 11 8.07 40.38 33.58 46.25 44.65 26.4 49.73-29.59 100.08-80.18 77.76-18.54-8.18-39.39-27.24-59.33-36.36-62.37-28.51-134.51-23.81-187.06 22.41" fill="#000000" data-color="2"/>
    </g>
</svg>
