<?xml version="1.0" encoding="UTF-8"?>
<svg id="Layer_1" xmlns="http://www.w3.org/2000/svg" version="1.1" viewBox="0 0 576 187.67">
  <defs>
    <style>
      .st0, .st1 {
        fill: #17aa7b;
      }

      .st2, .st3 {
        fill: #fff;
      }

      .st2, .st1 {
        display: none;
      }
    </style>
  </defs>
  <g>
    <g>
      <path class="st3" d="M561.23,95.85c0,25.88-20.98,46.86-46.86,46.86s-46.86-20.98-46.86-46.86,20.98-46.86,46.86-46.86,46.86,20.98,46.86,46.86ZM543.35,95.88c0-16.01-12.98-28.99-28.99-28.99s-28.99,12.98-28.99,28.99,12.98,28.99,28.99,28.99,28.99-12.98,28.99-28.99Z"/>
      <path class="st3" d="M430.66,48.41c6.38-.72,12.04,0,18.12,1.86,8.2,2.49,29.56,14.61,17.95,24.39-8.02,6.76-14.24-2.01-21.03-4.69-23.62-9.3-36.41,10.42-37.58,31.47-.53,9.55,2.86,26.77.29,35.05-2.94,9.45-17.31,8.66-18.42-4-.99-11.17-1.01-36.68,1.13-47.3,3.77-18.8,20.27-34.61,39.55-36.78h0Z"/>
      <path class="st3" d="M312.94,134.36v35.9c0,.25-2.27,3.62-2.72,4.08-5.92,6.15-16.69,2.89-17.71-5.58-1.57-13.09.1-32.3.05-46.15-.04-10.52-1.2-21.02-.02-31.7,4.98-45.02,65.1-57.96,87.78-18.28,24.35,42.6-27.06,89.39-67.39,61.72h.01ZM368.46,95.59c0-16.02-12.99-29.01-29.01-29.01s-29.01,12.99-29.01,29.01,12.99,29.01,29.01,29.01,29.01-12.99,29.01-29.01Z"/>
    </g>
    <g>
      <path class="st0" d="M188.99,111.68c-1.14,11.72-6.76,23.55-13.29,33.18-44,64.98-142.97,44.5-160.53-30.53,2.86-1.27,2.58,3.48,3.28,4.67,18.24,30.58,59.69,30.56,80.17,2.44,14.04-19.28,17.69-58.24,49.09-55.01,37.23,3.83,32.22,61.81-6.7,58.09-9.69-.93-21.13-15.97-28.67-5.23-3.94,5.61-1.03,9.23,3.34,13.18,18.66,16.88,53.79,10.92,67.13-9.97,2.17-3.39,3.14-8.13,6.17-10.82h.01Z"/>
      <path class="st0" d="M188.99,79.19c-3.98-5.01-5.71-11.01-10.19-15.88-19.35-21.04-54.75-19.06-71.74,3.85-15.05,20.29-21.04,68.64-57.86,55.47-31.03-11.1-21.09-58.47,12.48-56.31,1.29.08,9.83,1.9,10.17,2.3.48.55-.28,1.99-.72,2.68-4.61,7.17-17.94,15.08-23.79,23.82-6.11,9.11,4.68,18.42,12.8,12.8,4.27-2.96,14.53-13.78,18.91-18.12,3.33-3.3,15.22-14.3,16.07-17.93,2.47-10.51-14.36-19.35-22.68-21.6-18.92-5.11-40.51,1.84-51.54,18.42-1.42,2.13-2.22,5.14-3.59,6.99-.52.69-1.3,2.14-2.15.87C27.99,26.4,76.36-3.61,127.19,10.63c31.77,8.9,55.96,36.19,61.8,68.56Z"/>
      <path class="st3" d="M235.69,48.41c22.31-2.53,44.31,10.99,50.76,32.71,3.28,11.05,3.45,37.99,2.34,49.87-1.21,12.98-16.79,15.21-21.59,3.39-2.66-16.5,5.08-44.4-7.89-57.1-12.36-12.1-34.04-8.35-40.44,7.97-5.64,14.37-.74,29.72-1.87,44.23-.19,2.42-.69,5.8-1.95,7.88-4,6.58-16.24,6.06-19.16-1.18-1.97-4.87-.81-22.91-.8-29.43.02-8-.95-14.85.95-23.17,4.01-17.57,21.74-33.13,39.66-35.16h0Z"/>
    </g>
  </g>
</svg>
