<?xml version="1.0" encoding="UTF-8"?>
<svg data-bbox="9.37 3.65 415.35 108.39" viewBox="0 0 432 118.12" xmlns="http://www.w3.org/2000/svg" data-type="color">
    <g>
        <path d="M155.22 102.6c0 2.99-2.15 5-4.75 5-1.36 0-2.74-.65-3.37-1.73v1.48h-1.77V92.71h1.77v6.64c.63-1.12 1.97-1.73 3.39-1.73 2.6 0 4.73 1.97 4.73 4.98m-1.79-.02c0-1.91-1.38-3.29-3.13-3.29-1.54 0-3.21 1.24-3.21 3.29s1.52 3.35 3.21 3.35 3.13-1.46 3.13-3.35" fill="#000000" data-color="1"/>
        <path d="M164.65 97.87h1.77v9.48h-1.77v-1.69c-.63 1.14-1.95 1.93-3.47 1.93-2.48 0-4.65-2.09-4.65-5s2.05-4.98 4.73-4.98c1.42 0 2.76.61 3.39 1.73v-1.48Zm0 4.73c0-1.95-1.65-3.31-3.23-3.31-1.73 0-3.11 1.52-3.11 3.31s1.38 3.33 3.13 3.33 3.21-1.4 3.21-3.33" fill="#000000" data-color="1"/>
        <path d="M168.24 104.57h1.65c.02.81.73 1.48 1.89 1.48s1.91-.59 1.91-1.36c0-.71-.55-1.08-1.3-1.24l-1.3-.3c-1.58-.43-2.5-1.2-2.5-2.72s1.34-2.8 3.25-2.8c1.6 0 3.27.85 3.27 2.76h-1.71c-.02-.73-.77-1.22-1.52-1.22-.91 0-1.52.59-1.52 1.32 0 .65.61 1 1.22 1.14l1.4.35c1.97.49 2.48 1.67 2.48 2.74 0 1.77-1.71 2.88-3.68 2.88-1.71 0-3.45-1.08-3.53-3.03Z" fill="#000000" data-color="1"/>
        <path d="M186.24 103.37h-7.72c.26 1.69 1.48 2.56 3.11 2.56 1.16 0 2.21-.53 2.76-1.48l1.52.61c-.81 1.65-2.52 2.54-4.35 2.54-2.7 0-4.87-2.01-4.87-5.02s2.17-4.96 4.87-4.96 4.71 1.95 4.71 4.96c0 .26-.02.53-.04.79Zm-1.73-1.52c-.22-1.62-1.38-2.56-2.94-2.56s-2.74.85-3.03 2.56z" fill="#000000" data-color="1"/>
        <path d="M195.68 92.71h1.77v14.64h-1.77v-1.48c-.63 1.08-2.01 1.73-3.37 1.73-2.6 0-4.75-2.01-4.75-5s2.13-4.98 4.73-4.98c1.42 0 2.76.61 3.39 1.73zm0 9.87c0-2.05-1.67-3.29-3.23-3.29-1.73 0-3.11 1.38-3.11 3.29s1.38 3.35 3.11 3.35 3.23-1.32 3.23-3.35" fill="#000000" data-color="1"/>
        <path d="M204.01 102.6c0-3.01 2.25-4.98 4.96-4.98s4.98 1.97 4.98 4.98-2.27 5-4.98 5-4.96-1.99-4.96-5m8.17 0c0-1.95-1.46-3.31-3.21-3.31s-3.17 1.36-3.17 3.31 1.44 3.33 3.17 3.33 3.21-1.36 3.21-3.33" fill="#000000" data-color="1"/>
        <path d="M224.63 101.87v5.48h-1.77v-5.38c0-1.58-.97-2.6-2.29-2.6s-2.9.79-2.9 2.84v5.14h-1.77v-9.48h1.77v1.44c.57-1.16 2.11-1.69 3.15-1.69 2.36 0 3.84 1.58 3.82 4.24Z" fill="#000000" data-color="1"/>
        <path d="M247.67 104.29v3.31h-3.09v4.06h-3.69v-4.06h-10.15v-.98l12.16-15.6h1.67v13.27h3.09Zm-11.41 0h4.63v-5.92z" fill="#000000" data-color="1"/>
        <path d="M263.17 105.64c0 3.78-3.06 6.4-7.41 6.4-2.96 0-5.36-1.39-6.74-3.88l2.68-1.92c.95 1.54 2.3 2.46 3.91 2.46 2.3 0 3.88-1.35 3.88-3.18 0-1.95-1.61-3.31-3.84-3.31h-2.05v-2.87h1.45c2.21 0 3.56-1.23 3.5-2.84-.06-1.42-1.2-2.36-2.87-2.36-1.32 0-2.74.69-3.53 1.8l-2.17-2.24c1.32-1.76 3.5-2.93 6.02-2.93 3.62 0 6.27 2.17 6.24 5.61 0 1.83-1.01 3.37-2.68 4.19 2.21.76 3.62 2.65 3.62 5.07Z" fill="#000000" data-color="1"/>
        <path d="M281.12 104.29v3.31h-3.09v4.06h-3.69v-4.06h-10.15v-.98l12.16-15.6h1.67v13.27h3.09Zm-11.4 0h4.63v-5.92z" fill="#000000" data-color="1"/>
        <path d="M296.09 97.58H298l-3.96 9.48h-1.73l-3.94-9.48h1.89l2.92 7.23 2.9-7.23Z" fill="#000000" data-color="1"/>
        <path d="M308.01 103.08h-7.72c.26 1.69 1.48 2.56 3.11 2.56 1.16 0 2.21-.53 2.76-1.48l1.52.61c-.81 1.65-2.52 2.54-4.35 2.54-2.7 0-4.87-2.01-4.87-5.02s2.17-4.96 4.87-4.96 4.71 1.95 4.71 4.96c0 .26-.02.53-.04.79Zm-1.72-1.52c-.22-1.62-1.38-2.56-2.95-2.56s-2.74.85-3.03 2.56h5.97Z" fill="#000000" data-color="1"/>
        <path d="m316.06 97.7-.29 1.67c-.51-.24-1.01-.33-1.38-.33-1.89 0-2.64 2.05-2.64 4.55v3.47h-1.79v-9.48h1.79v2.15c.49-1.67 1.4-2.4 2.66-2.4.67 0 1.36.18 1.65.37" fill="#000000" data-color="1"/>
        <path d="M316.95 94.09c0-.67.57-1.18 1.24-1.18s1.26.51 1.26 1.18-.57 1.18-1.26 1.18-1.24-.51-1.24-1.18m.37 12.97v-9.48h1.77v9.48z" fill="#000000" data-color="1"/>
        <path d="M330.26 97.58v9.48h-1.77V99.1h-4.31v7.96h-1.77V99.1h-1.83v-1.52h1.83v-.98c0-2.48 1.04-4.18 3.57-4.18h.57v1.67h-.26c-1.69 0-2.13 1.04-2.11 2.27v1.22h6.07Zm.36-3.49c0 .67-.55 1.18-1.26 1.18-.67 0-1.24-.51-1.24-1.18s.57-1.18 1.24-1.18c.71 0 1.26.51 1.26 1.18" fill="#000000" data-color="1"/>
        <path d="M341.73 103.08h-7.72c.26 1.69 1.48 2.56 3.11 2.56 1.16 0 2.21-.53 2.76-1.48l1.52.61c-.81 1.65-2.52 2.54-4.35 2.54-2.7 0-4.87-2.01-4.87-5.02s2.17-4.96 4.87-4.96 4.71 1.95 4.71 4.96c0 .26-.02.53-.04.79Zm-1.72-1.52c-.22-1.62-1.38-2.56-2.95-2.56s-2.74.85-3.03 2.56H340Z" fill="#000000" data-color="1"/>
        <path d="M351.18 92.42h1.77v14.64h-1.77v-1.48c-.63 1.08-2.01 1.73-3.37 1.73-2.6 0-4.75-2.01-4.75-5s2.13-4.98 4.73-4.98c1.42 0 2.76.61 3.39 1.73zm0 9.87c0-2.05-1.67-3.29-3.23-3.29-1.73 0-3.11 1.38-3.11 3.29s1.38 3.35 3.11 3.35 3.23-1.32 3.23-3.35" fill="#000000" data-color="1"/>
        <path d="m366.25 97.7-.29 1.67c-.51-.24-1.01-.33-1.38-.33-1.89 0-2.64 2.05-2.64 4.55v3.47h-1.79v-9.48h1.79v2.15c.49-1.67 1.4-2.4 2.66-2.4.67 0 1.36.18 1.65.37" fill="#000000" data-color="1"/>
        <path d="M376.1 103.08h-7.72c.26 1.69 1.48 2.56 3.11 2.56 1.16 0 2.21-.53 2.76-1.48l1.52.61c-.81 1.65-2.52 2.54-4.35 2.54-2.7 0-4.87-2.01-4.87-5.02s2.17-4.96 4.87-4.96 4.71 1.95 4.71 4.96c0 .26-.02.53-.04.79Zm-1.72-1.52c-.22-1.62-1.38-2.56-2.95-2.56s-2.74.85-3.03 2.56h5.97Z" fill="#000000" data-color="1"/>
        <path d="M384.31 97.58h1.91l-3.96 9.48h-1.73l-3.94-9.48h1.89l2.92 7.23 2.9-7.23Z" fill="#000000" data-color="1"/>
        <path d="M387.2 94.09c0-.67.57-1.18 1.24-1.18s1.26.51 1.26 1.18-.57 1.18-1.26 1.18-1.24-.51-1.24-1.18m.36 12.97v-9.48h1.77v9.48z" fill="#000000" data-color="1"/>
        <path d="M400.81 103.08h-7.72c.26 1.69 1.48 2.56 3.11 2.56 1.16 0 2.21-.53 2.76-1.48l1.52.61c-.81 1.65-2.52 2.54-4.35 2.54-2.7 0-4.87-2.01-4.87-5.02s2.17-4.96 4.87-4.96 4.71 1.95 4.71 4.96c0 .26-.02.53-.04.79Zm-1.73-1.52c-.22-1.62-1.38-2.56-2.95-2.56s-2.74.85-3.03 2.56h5.97Z" fill="#000000" data-color="1"/>
        <path d="M414.68 97.58h1.91l-3.53 9.48h-1.48l-2.62-7.05-2.52 7.05h-1.46l-3.62-9.48h1.91l2.42 6.74 2.42-6.74h1.73l2.44 6.74 2.42-6.74Z" fill="#000000" data-color="1"/>
        <path d="M417.04 104.28h1.65c.02.81.73 1.48 1.89 1.48s1.91-.59 1.91-1.36c0-.71-.55-1.08-1.3-1.24l-1.3-.3c-1.58-.43-2.5-1.2-2.5-2.72s1.34-2.8 3.25-2.8c1.6 0 3.27.85 3.27 2.76h-1.71c-.02-.73-.77-1.22-1.52-1.22-.91 0-1.52.59-1.52 1.32 0 .65.61 1 1.22 1.14l1.4.35c1.97.49 2.48 1.67 2.48 2.74 0 1.77-1.71 2.88-3.68 2.88-1.71 0-3.45-1.08-3.53-3.03Z" fill="#000000" data-color="1"/>
        <path d="M78.24 104.18v3.31h-3.09v4.06h-3.69v-4.06H61.31v-.98l12.16-15.6h1.67v13.27h3.09Zm-11.41 0h4.63v-5.92z" fill="#000000" data-color="1"/>
        <path d="M80.34 109.54c0-1.35 1.1-2.33 2.39-2.33s2.43.98 2.43 2.33-1.1 2.33-2.43 2.33-2.39-.98-2.39-2.33" fill="#000000" data-color="1"/>
        <path d="M103 100.62c0 5.64-2.58 11.31-8.67 11.31-2.55 0-5.2-1.13-6.52-4.13l3.06-1.54c.72 1.58 2.08 2.27 3.5 2.27 2.77 0 4.79-2.71 4.85-6.27-1.01 1.17-2.58 1.99-4.63 1.99-4.19 0-7-3.09-7-6.68 0-3.81 2.93-6.9 7.5-6.9 4.92 0 7.91 4.13 7.91 9.96Zm-4.04-2.93c0-2.05-1.61-3.56-3.78-3.59-2.27 0-3.88 1.48-3.88 3.5s1.54 3.4 3.66 3.47c2.24 0 3.94-1.42 4-3.37Z" fill="#000000" data-color="1"/>
        <path d="m104.54 111.55 10.56-21.71h3.15l-10.56 21.71z" fill="#000000" data-color="1"/>
        <path d="M134.66 104.62c0 4.47-3.47 7.31-7.72 7.31-3.28 0-6.21-1.86-7.5-4.41l2.9-1.83c.72 1.61 2.49 2.84 4.41 2.84 2.49 0 4.22-1.61 4.22-3.88s-1.73-3.75-4.03-3.75c-1.64 0-3.34.73-4.73 1.86l-2.21-1.51 1.83-10.33h11.44v3.4h-8.44l-.95 4.79c1.04-.76 2.49-1.29 4.03-1.29 3.97 0 6.74 2.8 6.74 6.81Z" fill="#000000" data-color="1"/>
        <path fill="#fabb1a" d="M392.64 51.83 372.66 64.7l6.14-22.81-18.64-14.87 23.8-1.08 8.53-22.24 8.49 22.18 23.74 1.17-18.5 14.83 6.05 22.82z" data-color="2"/>
        <path fill="#fabb1a" d="m177.5 51.82-20.08 12.95 6.28-22.89-18.66-14.85 23.92-1.14 8.46-22.24 8.34 22.14 23.81 1.27-18.49 14.85 6.24 22.91z" data-color="2"/>
        <path fill="#fabb1a" d="m320.93 51.8-20.08 13.02 6.27-22.94-18.85-14.86 24.05-1.13 8.53-22.12 8.39 22.09 24.05 1.15-18.8 14.87 6.23 23.08z" data-color="2"/>
        <path fill="#fabb1a" d="m249.32 51.82-20.14 12.91 6.22-22.84-18.59-14.86 23.78-1.13 8.48-22.21 8.44 22.14 23.85 1.22-18.55 14.83 6.13 22.93z" data-color="2"/>
        <path fill="#fabb1a" d="M105.75 51.82 85.79 64.83 92 41.9 73.58 27.14l23.6-1.26 8.58-22.1 8.34 22.05 23.9 1.21-18.62 14.86 6.14 22.63z" data-color="2"/>
        <path d="M22.93 29.25c-.36.28-.9.69-1.2.51-1.86-1.12-6.24-4.42-7.82-5.91l.04-1.39c3.88-8.38 11.66-13.85 20.76-15.33 8.51-1.38 17.08.77 23.45 6.92-2.66 2.99-5.13 5.52-8 7.95-5.52-4.84-12.97-5.68-19.27-1.85-3.12 1.9-6.75 5.47-7.97 9.09Z" fill="#e95d43" data-color="3"/>
        <path d="M49.44 49.75c.34-.26.81-.5 1.14-.29 2.46 1.57 5.49 4.37 7.56 6.43l-.8 1.19c-5.44 4.81-11.9 6.71-19.17 6.4-11.11-.46-19.72-6.52-24.25-15.99 1.55-3.05 5.57-6.19 8.94-6.75 2.12 5.22 6.44 9.06 10.77 10.6 5.49 1.96 11.1 1.07 15.81-1.59" fill="#59a163" data-color="4"/>
        <path d="M57.33 57.08c.78-1.26-7.38-5.82-7.9-7.32 2.9-1.64 4.51-6.16 5.09-8.62l-15.17-.77.06-10.52 26.31-.02c1.07 1.73.61 3.55.73 5.1.66 8.99-2.89 16.64-9.12 22.15" fill="#6d82be" data-color="5"/>
        <path d="M22.93 29.25c-1.11 3.3-1.18 8.75-.06 11.5-2.87 2.38-5.81 4.74-8.94 6.75-3.95-8.26-4.54-17.17.04-25.02l8.97 6.78Z" fill="#fabb1a" data-color="2"/>
        <path d="m15.46 98.23-.28 1.67a3.4 3.4 0 0 0-1.38-.33c-1.89 0-2.64 2.05-2.64 4.55v3.47H9.37v-9.48h1.79v2.15c.49-1.67 1.4-2.4 2.66-2.4.67 0 1.36.18 1.65.37Z" fill="#000000" data-color="1"/>
        <path d="M23.87 98.11h1.77v9.48h-1.77v-1.69c-.63 1.14-1.95 1.93-3.47 1.93-2.48 0-4.65-2.09-4.65-5s2.05-4.98 4.73-4.98c1.42 0 2.76.61 3.39 1.73V98.1Zm0 4.73c0-1.95-1.65-3.31-3.23-3.31-1.73 0-3.11 1.52-3.11 3.31s1.38 3.33 3.13 3.33 3.21-1.4 3.21-3.33" fill="#000000" data-color="1"/>
        <path d="M32.77 98.11v1.52h-2.05v7.96h-1.77v-7.96h-1.71v-1.52h1.71v-3.57h1.77v3.57z" fill="#000000" data-color="1"/>
        <path d="M42.95 103.61h-7.72c.26 1.69 1.48 2.56 3.11 2.56 1.16 0 2.21-.53 2.76-1.48l1.52.61c-.81 1.65-2.52 2.54-4.35 2.54-2.7 0-4.87-2.01-4.87-5.02s2.17-4.96 4.87-4.96 4.71 1.95 4.71 4.96c0 .26-.02.53-.04.79Zm-1.73-1.52c-.22-1.62-1.38-2.56-2.94-2.56s-2.74.85-3.03 2.56z" fill="#000000" data-color="1"/>
        <path d="M52.39 92.95h1.77v14.64h-1.77v-1.48c-.63 1.08-2.01 1.73-3.37 1.73-2.6 0-4.75-2.01-4.75-5s2.13-4.98 4.73-4.98c1.42 0 2.76.61 3.39 1.73zm0 9.87c0-2.05-1.67-3.29-3.23-3.29-1.73 0-3.11 1.38-3.11 3.29s1.38 3.35 3.11 3.35 3.23-1.32 3.23-3.35" fill="#000000" data-color="1"/>
    </g>
</svg>
