<?xml version="1.0" encoding="utf-8"?>
<svg version="1.0" id="Layer_1" xmlns="http://www.w3.org/2000/svg" xmlns:xlink="http://www.w3.org/1999/xlink" x="0px" y="0px"
	 viewBox="0 0 448.78 174.05" style="enable-background:new 0 0 448.78 174.05;" xml:space="preserve">
<style type="text/css">
	.st0{fill:#20507A;}
	.st1{fill:#A3C5DA;}
</style>
<g id="QwFyKv.tif">
	<g>
		<path class="st0" d="M210.91,93.37c2.31-1.39,5.65-0.81,7.87-0.25c-0.96,12.25-8.48,21.72-20.02,25.26
			c-11.08,3.39-23.94,2.07-33.35-5c-16.14-12.12-17.26-40.36-8.61-56.62c5.86-11.01,16.56-16.8,28.88-16.62
			c24.91,0.35,34.99,20.15,33.59,41.69l-59.23,0.32c1.2,17.14,9.6,29.4,27.86,29.49C199.24,111.68,208.95,105.04,210.91,93.37z
			 M211.03,73.6c-2.13-17.14-13.98-26.81-28.63-25.13c-12.27,1.41-20.84,11.7-22.47,25.27L211.03,73.6z"/>
		<path class="st1" d="M434.29,93.34c1.17-1.6,5.56-0.99,6.94-0.09c-0.35,11.15-7.42,20.69-17.95,24.41
			c-12.94,4.57-28.25,2.72-38.19-7.1c-15.4-15.22-14.28-50.9,2.53-63.68c13.76-10.46,33.94-8.92,45.28,3.66
			c7.8,8.65,9.6,20.25,9.38,31.35l-59.57,0.34c0.55,8.67,2.88,16.3,8.72,22.22c10,10.15,27.31,9.78,37.37-0.12
			C431.9,101.31,431.71,96.86,434.29,93.34z M433.57,73.49c-0.73-10.91-7.02-20.25-16.21-23.57c-9.68-3.5-20.71-1.36-27.48,6.53
			c-4.02,4.68-6.15,10.57-6.7,17.08C400.44,73.94,416.41,74.06,433.57,73.49z"/>
		<path class="st1" d="M303.2,61.44c3.42,0.22,3.5,7.71,0.49,7.91c-17.6,1.15-34.41,0.47-51.96,0.15l-0.32,51.11
			c-2.91,0.5-5.05,0.39-7.86-0.11l0.02-106.8l68.94-0.03c1.74,1.43,1.02,5.11,0.48,7.75l-61.17,0.2l0.09,39.7L303.2,61.44z"/>
		<path class="st0" d="M76.15,110.04c1.41,2.63,1.06,4.91,0.3,7.88l-69.24-0.01L7.29,11.73c0.86-1.98,6.87-1.91,8.17,0.06
			l0.14,98.19L76.15,110.04z"/>
		<path class="st0" d="M128.78,117.24c-2.71,1.34-5.51,0.93-8.19,0.28l-0.18-68.42l-13.31-0.73c-1.34-1.42-1.31-5.9,0.06-7.28
			c3.59-1.52,8.88,0.26,12.77-0.84c1.31-8.01-0.97-20.69,7.39-26.86c5.31-3.92,13.24-5.49,18.79-2.49c1.63,1.08,0.59,5.22,0.24,6.92
			c-5.31,0.62-11.66,0.24-15.04,4.94c-3.53,4.92-2.56,11.53-2.25,17.42l15.44,0.47c0.68,2.36,0.62,5.01,0.17,7.65l-15.87,0.66
			L128.78,117.24z"/>
		<path class="st1" d="M357.97,119.55c-1.69,2.56-4.94,1.39-7.94,0.8L350,14.61c2.26-1.64,4.9-1.16,7.94-0.5L357.97,119.55z"/>
		<path class="st0" d="M95.56,117.32c-2.6,1.32-5.18,0.71-8.21,0.41l0.02-76.26c2.27-1.54,5.7-1.2,8.18-0.27L95.56,117.32z"/>
		<path class="st1" d="M331.83,120.61c-3.21,0.66-5.27,0.48-8.11-0.4l-0.13-75.19c3.02-0.67,5.52-0.71,8.21,0.06L331.83,120.61z"/>
		<path class="st0" d="M95.16,23.39c-2.64,1.19-5.5,0.69-8.25,0.45c0.16-4.78,0.18-8.48,0.69-12.75c2.51-0.85,4.95-0.76,7.73-0.32
			C95.88,14.77,95.43,18.25,95.16,23.39z"/>
		<path class="st1" d="M332.21,25.51c-3.08,0.75-5.51,0.45-8.41-0.03c-0.36-3.98-0.33-7.44,0.12-11.47c2.8-0.62,5.28-0.61,8.21-0.09
			L332.21,25.51z"/>
	</g>
</g>
<rect x="6.92" y="130.27" class="st0" width="4.34" height="35.28"/>
<rect x="24.41" y="130.26" class="st0" width="8.76" height="35.28"/>
<rect x="37.8" y="130.22" class="st0" width="13.49" height="35.28"/>
<rect x="56.43" y="130.41" class="st0" width="6.67" height="35.28"/>
<rect x="80.28" y="130.13" class="st0" width="9.1" height="35.28"/>
<rect x="93.15" y="130.13" class="st0" width="6.25" height="35.28"/>
<rect x="106.24" y="130.13" class="st0" width="6.25" height="35.28"/>
<rect x="116.38" y="130.32" class="st0" width="9.1" height="35.28"/>
<rect x="143.22" y="130.3" class="st0" width="5.81" height="35.28"/>
<rect x="157.79" y="130.3" class="st0" width="5.81" height="35.28"/>
<rect x="167.72" y="130.39" class="st0" width="8.18" height="35.28"/>
<rect x="184.72" y="130.21" class="st0" width="5.81" height="35.28"/>
<rect x="209.26" y="130.06" class="st0" width="8.65" height="35.28"/>
<rect x="222.05" y="130.43" class="st0" width="9.66" height="35.28"/>
<rect x="242.57" y="130.37" class="st1" width="9.05" height="35.28"/>
<rect x="258.1" y="130.36" class="st1" width="5.53" height="35.28"/>
<rect x="275.85" y="130.33" class="st1" width="8.84" height="35.28"/>
<rect x="299.43" y="130.39" class="st1" width="4.13" height="35.28"/>
<rect x="309.06" y="130.24" class="st1" width="4.68" height="35.28"/>
<rect x="331.86" y="130.11" class="st1" width="8.5" height="35.28"/>
<rect x="344.5" y="130.24" class="st1" width="4.1" height="35.28"/>
<rect x="359.5" y="130.3" class="st1" width="9.1" height="35.28"/>
<rect x="377.03" y="130.28" class="st1" width="4.27" height="35.28"/>
<rect x="385.84" y="130.4" class="st1" width="4.63" height="35.28"/>
<rect x="409.25" y="130.37" class="st1" width="5.11" height="35.28"/>
<rect x="418.03" y="130.19" class="st1" width="9.38" height="35.28"/>
<rect x="436.5" y="130.16" class="st1" width="5.05" height="35.28"/>
</svg>
