<?xml version="1.0" encoding="UTF-8"?>
<svg data-bbox="4.711 1.97 48.083 91.87" viewBox="0 0 57.57 96" xmlns="http://www.w3.org/2000/svg" data-type="color">
    <g>
        <path d="M36.79 48.17c-2.9 1.29-5.38 3.32-7.82 4.76-13.95 8.21-22.9 24.82-22.1 40.87-1.11-4.56-2.26-9.16-2.1-14.17.4-12.5 6.55-23.94 15.95-31.77 3.12-1.17 5.21-4.35 7.9-5.61 4.25-2 7.44-4.77 10.62-8.06 4.17-4.3 7.02-9.08 8.75-14.84s2.74-11.2 2.59-17.38c3.41 12.12 3.13 22.4-3.01 33.6-2.75 5.01-6.51 9.06-10.78 12.6" fill="#dcab2a" data-color="1"/>
        <path d="M28.62 42.25c-2.68 1.26-4.78 4.44-7.9 5.61-8.38-6.08-13.58-15.15-15.51-25.57-1.26-6.77.07-13.65 1.71-20.3-.06 10.89 3.17 24.49 11.3 32.01 3.07 3.37 6.45 6.3 10.4 8.24Z" fill="#121212" data-color="2"/>
        <path d="M36.79 48.17C46 54.73 52.3 67.73 52.77 79.23c.21 5.15-1.02 9.83-2.02 14.61l-.23-6.58c-.5-14.26-9.71-26.61-21.54-34.33 2.44-1.44 4.91-3.46 7.82-4.76Z" fill="#121212" data-color="2"/>
        <path d="M50.69 1.97H6.8z" fill="#121212" data-color="2"/>
        <path fill="#231f20" d="M50.87 92.78v1.01H6.79v-1.01z" data-color="3"/>
        <path fill="#231f20" d="M50.6 2.01v1.01H6.91V2.01z" data-color="3"/>
    </g>
</svg>
