<?xml version="1.0" encoding="utf-8"?>
<svg version="1.0" id="Layer_1" xmlns="http://www.w3.org/2000/svg" xmlns:xlink="http://www.w3.org/1999/xlink" x="0px" y="0px"
	 viewBox="0 0 168.23 152.78" style="enable-background:new 0 0 168.23 152.78;" xml:space="preserve">
<style type="text/css">
	.st0{fill:#5D9DD7;}
</style>
<g>
	<path class="st0" d="M86.02,30.65l-0.75,45.44c-0.04,2.36-6.83,1.08-6.84-1.71l-0.18-43.47c-4.13-1.79-8.2-2.67-12.52-3.97
		c-10.27,5.54-20.4,10.86-32.54,10.9c-0.91-2.22-0.68-4.61-0.23-6.98c3.47,0.53,33.79-7.31,23.81-12.31
		c-0.7-0.35-1.61-0.41-3.2,0.28c-15,6.55-30.88,11.43-47.4,11.64c-1.47-1.56-0.91-4.26-0.7-6.93c18.79-0.88,36.15-6.92,53.66-15.17
		c5.33,9.26,13.28,15.12,22.92,14.99c9.62-0.13,17.8-5.53,22.75-15.08c17.23,8.57,34.4,13.75,52.95,15.48
		c1.59,0.15,1.57,6.11,0,6.63c-16.11,0-32.51-5.03-47.28-11.52c-1.73-0.76-2.4-0.67-3.14-0.36c-10.83,4.57,19.53,12.63,22.8,12.46
		c8.07,16.06-27.33-0.83-31.79-3.93C94.28,27.95,90.7,29.08,86.02,30.65z"/>
	<path class="st0" d="M109.3,98.72c0.7,10.42-10.68,17.56-13.03,17.53c-2.19-0.03-4.81-1.74-6.19-4.11c3.67-2.2,6.72-3.85,9.51-6.72
		c3.38-3.47,3.24-7.97-0.69-11.22c-11.58-9.55-30.45-3.67-46.02-18.65c-5.2-5-7.95-12.12-7-19.04c1.37-10.04,9.68-16.9,19.7-15.62
		c3.37,0.43,8.29,4.5,6.14,7.61c-1.92,2.77-6.99-0.53-9.58-0.31c-4.79,0.41-7.68,4.38-8.8,8.11c-1.11,3.69,0.07,8.39,2.96,11.87
		c12.18,14.7,30.9,9.49,45.21,18.69C106.04,89.76,108.97,93.88,109.3,98.72z"/>
	<path class="st0" d="M66.44,128.4c-0.44-2.47,1.02-4.67,1.59-5.75c0.82-1.55,2.89-0.36,4.02-0.17c2.41,0.39,3.22,2.1,2.51,5.08
		c-0.29,1.23,0.06,2.07,0.78,2.88c0.64,0.71,1.76,1.72,2.45,0.42c0.72-1.35,0.48-2.76,0.58-4.4c0.16-2.35,3.2-1.2,4.63-0.86
		c3.76,0.89,2.95,9.44,6.09,4.67c6.29-9.58-18.26-6.52-30.33-20.27c-3.26-3.71-4.97-8.73-3.82-13.49c0.8-3.34,3.84-8.5,8.21-9.51
		c3.03-0.7,6.46,1.83,8.86,2.85c-3.96,2.37-10.22,4.75-9.93,10.18c0.3,5.66,6.26,9.75,11.07,11.35l15.65,5.23
		c5.23,1.75,8.82,6.59,8.6,11.42c-0.26,5.68-3.65,9.22-8.99,11.92C79.91,144.24,68.25,138.63,66.44,128.4z"/>
	<path class="st0" d="M92.21,78.2c10.64-3.33,22.36-13.67,18.27-22.98c-1.54-3.51-4.7-7.28-9.55-7.07
		c-2.39,0.11-6.78,2.81-8.59,0.42c-2.26-3,1.98-6.64,5.21-7.43c5.64-1.38,11.68,0.65,15.5,4.58c3.84,3.96,6.25,10.17,5.16,16.35
		c-1.65,9.32-8.62,16.47-17.06,20.08C97.39,81.27,94.7,80.26,92.21,78.2z"/>
	<path class="st0" d="M85.17,109.2c-0.11,1.95-5.89,1.83-6.19,0.17c-1.04-5.77-0.78-11.11-0.16-17.21c0.17-1.69,5.93-1.26,6.2,0.36
		C85.89,97.9,85.52,102.58,85.17,109.2z"/>
</g>
</svg>
