<?xml version="1.0" encoding="UTF-8"?>
<svg id="Layer_2" xmlns="http://www.w3.org/2000/svg" xmlns:xlink="http://www.w3.org/1999/xlink" version="1.1" viewBox="0 0 1151.46 383.57">
  <defs>
    <style>
      .st0 {
        fill: url(#linear-gradient);
      }

      .st1 {
        fill: #1a1a1a;
      }
    </style>
    <linearGradient id="linear-gradient" x1="19.45" y1="159.74" x2="222.56" y2="159.74" gradientTransform="translate(-18.64 354.74) rotate(-1.55) scale(1 -1)" gradientUnits="userSpaceOnUse">
      <stop offset="0" stop-color="#c19423"/>
      <stop offset=".15" stop-color="#cfa025"/>
      <stop offset=".45" stop-color="#f5c02c"/>
      <stop offset=".51" stop-color="#ffc82e"/>
      <stop offset=".62" stop-color="#f9c32d"/>
      <stop offset=".75" stop-color="#eab62a"/>
      <stop offset=".9" stop-color="#d1a125"/>
      <stop offset=".98" stop-color="#c19423"/>
    </linearGradient>
  </defs>
  <g id="Layer_1-2">
    <g>
      <g>
        <g>
          <path class="st1" d="M196.06,192.04c0-6.77.86-13.28,2.59-19.51s4.19-12.08,7.39-17.54,7.02-10.43,11.46-14.91c4.44-4.47,9.38-8.29,14.82-11.46,5.44-3.16,11.27-5.62,17.51-7.38,6.24-1.76,12.74-2.64,19.52-2.64s13.2.88,19.47,2.64,12.12,4.22,17.56,7.38c5.44,3.16,10.39,6.98,14.87,11.46,4.48,4.47,8.3,9.44,11.46,14.91,3.17,5.46,5.63,11.31,7.39,17.54,1.76,6.23,2.64,12.73,2.64,19.51s-.88,13.28-2.64,19.51-4.22,12.05-7.39,17.45-6.99,10.32-11.46,14.76c-4.48,4.44-9.43,8.26-14.87,11.46-5.44,3.2-11.29,5.66-17.56,7.38-6.27,1.73-12.76,2.59-19.47,2.59s-13.29-.86-19.52-2.59c-6.24-1.73-12.07-4.18-17.51-7.38-5.44-3.19-10.38-7.01-14.82-11.46-4.45-4.44-8.27-9.36-11.46-14.76-3.2-5.4-5.66-11.22-7.39-17.45s-2.59-12.73-2.59-19.51h0ZM233.16,191.95c0,5.31.89,10.26,2.68,14.86s4.29,8.61,7.52,12.03c3.22,3.42,7.04,6.1,11.44,8.05s9.25,2.92,14.55,2.92,10.16-.97,14.6-2.92c4.43-1.95,8.26-4.63,11.49-8.05,3.22-3.42,5.73-7.43,7.51-12.03,1.79-4.6,2.68-9.55,2.68-14.86s-.89-10.18-2.68-14.81c-1.79-4.63-4.29-8.68-7.51-12.13s-7.05-6.17-11.49-8.15-9.3-2.97-14.6-2.97-10.15.99-14.55,2.97c-4.4,1.98-8.22,4.7-11.44,8.15s-5.73,7.49-7.52,12.13c-1.79,4.63-2.68,9.57-2.68,14.81Z"/>
          <path class="st1" d="M383.45,261.07c-.7-1.15-1.33-2.33-1.87-3.55-.54-1.21-1.07-2.46-1.58-3.74l-49.18-128.74c0-.32-.05-.61-.14-.86-.1-.25-.14-.51-.14-.77,0-1.79,1.18-2.68,3.55-2.68h30.87c2.43,0,4.09,1.21,4.98,3.64l29.24,87.24c2.62-7.29,5.13-14.55,7.53-21.81,2.4-7.25,4.76-14.52,7.09-21.81s4.7-14.55,7.09-21.81c2.4-7.25,4.9-14.52,7.53-21.81.89-2.43,2.65-3.64,5.27-3.64h30.2c1.47,0,2.51.27,3.12.82.61.54.91,1.26.91,2.16,0,.51-.03.86-.1,1.05v.29l-49.47,128.74c-.32.9-.7,1.89-1.15,2.97-.45,1.09-.96,2.09-1.53,3.02-.58.93-1.25,1.71-2.01,2.35-.77.64-1.63.96-2.59.96h-23.68c-1.98,0-3.29-.67-3.93-2.01h0Z"/>
          <path class="st1" d="M474.99,125.13c0-1.34.37-2.41,1.1-3.21.73-.8,1.77-1.2,3.11-1.2h95.11c1.4,0,2.49.41,3.26,1.24.77.83,1.15,1.94,1.15,3.34v23.71c0,1.08-.38,2.12-1.15,3.11s-1.89,1.48-3.36,1.48h-62.12v23.77h47.93c1.21,0,2.22.29,3.02.86.8.58,1.2,1.53,1.2,2.88v20.71c0,.9-.35,1.76-1.05,2.59s-1.73,1.25-3.07,1.25h-48.03v24.54h64.42c2.88,0,4.31,1.47,4.31,4.4v24.09c0,.64-.26,1.21-.77,1.72-.26,1.79-1.57,2.68-3.93,2.68h-96.93c-1.28,0-2.3-.34-3.06-1.01-.77-.67-1.15-1.71-1.15-3.12V125.13h0Z"/>
          <path class="st1" d="M588.15,125.13c0-1.34.35-2.41,1.05-3.21.7-.8,1.76-1.2,3.16-1.2h61.93c6.58,0,12.75,1.23,18.5,3.69s10.77,5.8,15.05,10.02c4.28,4.22,7.65,9.15,10.11,14.81,2.46,5.66,3.69,11.68,3.69,18.07,0,4.35-.59,8.48-1.77,12.41-1.18,3.93-2.83,7.61-4.94,11.02-2.11,3.42-4.62,6.52-7.53,9.3-2.91,2.78-6.09,5.16-9.54,7.14l24.64,46.4c.45.9,1.02,1.95,1.73,3.16.7,1.21,1.05,2.27,1.05,3.16,0,1.02-.33,1.81-1.01,2.35-.67.54-1.58.81-2.73.81h-32.88c-1.09,0-2.06-.32-2.92-.96-.86-.64-1.42-1.5-1.68-2.59l-23.29-43.81h-15.53v43.23c0,2.75-1.47,4.12-4.41,4.12h-28.47c-1.28,0-2.3-.34-3.07-1.01s-1.15-1.71-1.15-3.12V125.13h.01ZM663.21,167.7c0-1.92-.35-3.83-1.05-5.75s-1.69-3.67-2.97-5.27c-1.28-1.6-2.81-2.94-4.6-4.03s-3.77-1.79-5.94-2.11c-1.79-.13-3.47-.24-5.03-.34-1.57-.1-3.28-.14-5.13-.14h-13.23v35.18h17.64c1.15,0,2.17-.03,3.07-.1.89-.06,1.88-.16,2.97-.29,2.24-.25,4.25-.91,6.04-1.97,1.79-1.05,3.29-2.36,4.51-3.93,1.21-1.57,2.14-3.32,2.78-5.27s.96-3.95.96-5.99h-.02Z"/>
          <path class="st1" d="M708.4,124.93c0-1.27.43-2.29,1.29-3.06.86-.76,1.93-1.15,3.21-1.15h103.15c1.15,0,2.17.35,3.07,1.05.89.7,1.4,1.75,1.53,3.15v23.8c0,1.15-.4,2.25-1.2,3.3s-1.93,1.58-3.4,1.58h-33.07v104.97c0,1.15-.41,2.19-1.24,3.12s-1.91,1.39-3.25,1.39h-28.11c-1.08,0-2.1-.43-3.06-1.3-.96-.86-1.43-1.94-1.43-3.21v-104.97h-32.98c-1.28,0-2.35-.41-3.21-1.24-.86-.83-1.29-2.04-1.29-3.63v-23.8h-.01Z"/>
          <path class="st1" d="M828.32,124.94c0-1.15.35-2.14,1.05-2.97s1.76-1.25,3.16-1.25h28.18c.96,0,1.98.38,3.07,1.15,1.09.77,1.63,1.79,1.63,3.07v133.92c0,2.81-1.57,4.22-4.7,4.22h-28.18c-2.81,0-4.22-1.41-4.22-4.22V124.94h.01Z"/>
          <path class="st1" d="M887.6,124.94c.13-1.15.58-2.14,1.34-2.97.77-.83,1.85-1.25,3.26-1.25h33.17c2.36,0,3.9,1.21,4.6,3.64l26.08,87.04,26.27-87.04c.89-2.43,2.52-3.64,4.89-3.64h32.79c1.15,0,2.19.4,3.12,1.2.93.8,1.45,1.81,1.58,3.02,2.24,22.5,4.52,44.82,6.85,66.96,2.33,22.14,4.62,44.47,6.85,66.96v.48c0,2.49-1.41,3.74-4.22,3.74h-27.13c-2.94,0-4.47-1.41-4.6-4.22l-8.34-74.1-21.57,74.58c-.13.64-.59,1.41-1.39,2.3-.8.9-1.58,1.34-2.35,1.34h-25.21c-.77,0-1.58-.43-2.44-1.29-.86-.86-1.33-1.64-1.39-2.35l-21.57-74.39-8.34,73.91c-.13,2.81-1.69,4.22-4.7,4.22h-27.13c-2.75,0-4.12-1.41-4.12-4.22l13.71-133.92h0Z"/>
          <path class="st1" d="M1045.62,125.13c0-1.34.37-2.41,1.1-3.21.73-.8,1.77-1.2,3.11-1.2h95.11c1.4,0,2.49.41,3.26,1.24s1.15,1.94,1.15,3.34v23.71c0,1.08-.38,2.12-1.15,3.11s-1.89,1.48-3.36,1.48h-62.12v23.77h47.93c1.21,0,2.22.29,3.02.86.8.58,1.2,1.53,1.2,2.88v20.71c0,.9-.35,1.76-1.05,2.59-.7.83-1.73,1.25-3.07,1.25h-48.03v24.54h64.42c2.88,0,4.31,1.47,4.31,4.4v24.09c0,.64-.26,1.21-.77,1.72-.26,1.79-1.57,2.68-3.93,2.68h-96.93c-1.28,0-2.3-.34-3.06-1.01-.77-.67-1.15-1.71-1.15-3.12V125.13h.01Z"/>
        </g>
        <g>
          <path class="st1" d="M455.67,292.63v35.46h-4.96v-27.56l-8.56,22.44.05.05h-5.83l-8.66-23.05v28.11h-4.71v-35.46h6.79l9.68,26.14,9.78-26.09v-.05h6.43-.01Z"/>
          <path class="st1" d="M487.58,296.74v11.25h13.73v4.1h-13.73v11.9h14.84v4.1h-20.01v-35.46h20.01v4.1h-14.84Z"/>
          <path class="st1" d="M553.28,292.63v35.46h-6.18l-15.25-28.87v28.87h-4.66v-35.46h6.28l15.15,28.72v-28.72h4.66,0Z"/>
          <path class="st1" d="M581.37,327.51c-2.04-.79-3.82-1.9-5.34-3.32l2.74-3.19c1.28.88,2.31,1.52,3.09,1.92.78.41,1.72.75,2.84,1.04,1.11.29,2.46.43,4.05.43,1.79,0,3.3-.27,4.53-.81,1.23-.54,2.14-1.23,2.71-2.08.57-.84.86-1.72.86-2.63v-.66c0-1.45-.41-2.58-1.24-3.39-.83-.81-2.36-1.59-4.58-2.33l-5.32-1.72c-2.9-.94-5.01-2.15-6.31-3.62s-1.95-3.2-1.95-5.19v-1.11c0-1.52.48-2.95,1.44-4.31.96-1.35,2.37-2.44,4.23-3.27s4.07-1.24,6.64-1.24,4.79.39,6.76,1.17c1.98.78,3.77,1.92,5.4,3.44l-2.74,2.94c-1.59-1.28-3.06-2.18-4.43-2.69s-3.01-.76-4.94-.76c-2.36,0-4.15.48-5.37,1.44s-1.82,2.07-1.82,3.32v.96c0,1.01.48,1.93,1.44,2.74s2.49,1.54,4.58,2.18l4.71,1.47c2.77.88,4.9,2.04,6.41,3.47,1.5,1.44,2.25,3.42,2.25,5.95v1.27c0,1.89-.54,3.58-1.62,5.07-1.08,1.49-2.63,2.64-4.63,3.47-2.01.83-4.33,1.24-6.97,1.24-2.9,0-5.38-.4-7.42-1.19h0Z"/>
          <path class="st1" d="M680.98,328.09h-5.17v-16.16h-15.86v16.16h-5.17v-35.46h5.17v14.99h15.86v-14.99h5.17v35.46Z"/>
          <path class="st1" d="M712.9,296.74v11.25h13.73v4.1h-13.73v11.9h14.84v4.1h-20.01v-35.46h20.01v4.1h-14.84Z"/>
          <path class="st1" d="M768.62,317.96h-13.07l-3.04,10.13h-5.22l11.2-35.46h7.04l11.7,35.46h-5.37l-3.24-10.13h0ZM756.87,313.66h10.38l-5.27-17.27-5.12,17.27h.01Z"/>
          <path class="st1" d="M819.33,323.79v4.31h-20.01v-35.46h5.17v31.15h14.84Z"/>
          <path class="st1" d="M859.14,296.74h-10.28v31.36h-5.12v-31.36h-10.28v-4.1h25.68v4.1h0Z"/>
          <path class="st1" d="M907.22,328.09h-5.17v-16.16h-15.86v16.16h-5.17v-35.46h5.17v14.99h15.86v-14.99h5.17v35.46Z"/>
        </g>
      </g>
      <g>
        <g>
          <polygon class="st1" points="186.92 3.15 9.13 3.15 9.55 0 186.54 0 186.92 3.15"/>
          <polygon class="st1" points="9.03 380.42 187.09 380.42 186.67 383.57 9.4 383.57 9.03 380.42"/>
        </g>
        <g>
          <path class="st1" d="M.91,47.64C2.21,29.76,8.94,2.58,9.52.03c.02-.1.02.06,0,.43-1.27,21.5.84,43.11,6.94,63.76,9.01,30.48,13.98,46.97,44.85,77.43,24.6,24.27,26.33,18.3,70.05,51.05,43.07,32.27,69.72,96.5,63.91,143.26-1.3,17.88-7.99,45.21-8.61,47.61,6.16-50.46-18.57-107.35-51.79-141.62-27.77-28.64-54.02-39.64-70.05-51.06C17.33,157.06-4.9,94.4.91,47.64Z"/>
          <path class="st0" d="M195.15,47.64c-1.3-17.88-8.03-45.05-8.61-47.61-.02-.1-.02.06,0,.43,1.27,21.5-.84,43.11-6.94,63.76-9.01,30.48-13.98,46.97-44.85,77.43-24.6,24.27-26.33,18.3-70.05,51.05C21.63,224.97-5.02,289.2.79,335.96c1.3,17.88,7.99,45.21,8.61,47.61-6.16-50.46,18.57-107.35,51.79-141.62,27.77-28.64,54.02-39.64,70.05-51.06,47.49-33.84,69.72-96.5,63.91-143.26h0Z"/>
        </g>
      </g>
    </g>
  </g>
</svg>
