<?xml version="1.0" encoding="UTF-8"?>
<svg data-bbox="2.56 1.85 455.273 78.16" viewBox="0 0 460 85.35" xmlns="http://www.w3.org/2000/svg" data-type="color">
    <g>
        <path d="M240.51 78.48h-15.75l-.25-32.5c-.04-5.32-5.63-8.59-9.86-8.4-14.89.68-8.87 28.83-9.64 40.76l-16.1.16-.03-54.22 14.65-.35 1.62 4.92c8.83-9.17 24.04-9.25 32.02 2.16 5.06-7.04 12.55-9.25 20.82-8.6 10.34.82 17.91 8.63 17.92 19.27l.04 36.79-15.76.03-.37-31.86c-.06-5.18-5.26-9.18-9.49-9.07-4.29.11-9.32 4.09-9.39 9.36l-.43 31.53Z" fill="#ffffff" data-color="1"/>
        <path d="M52.22 78.64c-2.7-9.67-4.58-17.09-8.27-27.36l-8.12 27.27-16.86-.18L2.56 24.51l16.34-.63c2.86 10.86 4.99 20.33 8.78 31.2 3.74-11.25 5.95-20.86 8.73-31.11l15.4-.13 8.88 31.91 8.59-31.84 16.24.42-16.49 54-16.82.3Z" fill="#ffffff" data-color="1"/>
        <path d="M383.54 73.67c-4.57 4.65-9.75 6.16-15.97 6.28-11.35.22-21.21-5.54-25.18-16.48-5.6-15.46.49-35.4 16.46-39.85 8.75-2.44 16.92-1.47 24.54 4.91l.34-26.67 16.34.15.03 76.38-14.34.27-2.23-4.98Zm-18.67-9.61c6.79 2.93 13.36.15 16.65-4.49 3.83-5.4 3.38-11.55-.03-16.58-3.36-4.96-9.67-7.12-15.78-4.9-5.27 1.92-8.61 7.71-8.69 12.87-.08 4.87 2.77 10.9 7.86 13.09Z" fill="#ffffff" data-color="1"/>
        <path d="m321.87 59.56 14.14 3.21c-3.2 11.5-13.06 17.2-24.68 17.16-8.38-.03-16.56-1.55-22.36-8.53-9.47-11.39-9.49-29.36.55-40.7 7.23-8.16 18.84-9.96 29.21-7.22 13.57 3.59 19.83 18.16 18.06 32.17l-38.38.14c.37 5.85 4.93 9.27 9.5 10.28 5.49 1.22 9.65-1.48 13.97-6.52Zm-1.84-14.08c-.15-6.68-5.18-9.57-10.82-9.3-5.23.25-9.74 2.94-9.89 9.29h20.71Z" fill="#ffffff" data-color="1"/>
        <path d="m122.11 59.5 14.38 3.43c-3.36 12.07-13.77 16.8-25 17.07-13.73.33-24.48-7.26-27.85-20.73-1.24-4.95-1.24-9.9-.25-14.95 2.49-12.73 12.25-21.25 25.16-22.04 13.49-.82 25.32 7.02 28.06 20.65.82 4.08.95 8.08.56 12.72l-37.66.13c-.4 5.97 4.09 8.96 8.69 10.09 5.03 1.23 10.12-.45 13.92-6.38Zm-1.06-14.05c-1.05-6.73-5.86-9.49-11.27-9.26-4.75.2-9.44 3-10.41 9.29l21.68-.02Z" fill="#ffffff" data-color="1"/>
        <path fill="#ffffff" d="m158.02 78.34-16.46.11.03-76.49 16.6-.11z" data-color="1"/>
        <path fill="#ffffff" d="m181.88 78.35-16.51.1.03-76.43 16.42-.03z" data-color="1"/>
        <path d="m423.68 78.36-16.58.15-.02-54.32 14.82-.33 2.16 5.48c4.64-5.09 9.61-7.75 17.06-6.7l.02 16.05c-8.8-1.49-17.04 3.92-17.14 12.69z" fill="#ffffff" data-color="1"/>
        <path d="M444.68 59.24c5.78-1.49 11.21 1.97 12.62 6.87 1.8 6.21-1.04 11.89-7.24 13.37-5.46 1.31-11.31-1.21-13.09-7.2-1.55-5.2 1.79-11.51 7.71-13.04" fill="#ffffff" data-color="1"/>
    </g>
</svg>
