<svg width="120" height="120" viewBox="0 0 120 120" fill="none" xmlns="http://www.w3.org/2000/svg">
<path d="M56.3574 38.8122C45.2616 38.8068 34.6424 40.9567 26.0823 44.736C17.7453 48.4167 11.381 53.6337 8.47236 59.8921C8.12605 60.6373 7.82687 61.4012 7.58153 62.1815C6.44972 65.7811 6.87238 64.6909 8.16378 62.4018C8.55588 61.7067 8.98594 61.0217 9.45265 60.3479C12.9725 55.266 18.5774 50.8198 25.717 47.4903C35.2471 43.046 47.5289 40.5809 61.2331 41.2511L56.3574 38.8122ZM110.335 43.2961C110.335 44.0853 109.135 44.0853 109.135 43.2961V34.5601C109.135 33.7708 110.335 33.7708 110.335 34.5601V43.2961ZM107.071 41.7754C107.071 42.5646 105.871 42.5646 105.871 41.7754V36.0808C105.871 35.2916 107.071 35.2916 107.071 36.0808V41.7754ZM26.9995 60.9361C26.9995 61.7253 25.7995 61.7253 25.7995 60.9361V53.408C25.7995 52.6188 26.9995 52.6188 26.9995 53.408V60.9361ZM30.2635 58.3937C30.2635 59.183 29.0635 59.183 29.0635 58.3937V55.9504C29.0635 55.1612 30.2635 55.1612 30.2635 55.9504V58.3937ZM17.7996 13.768C17.7996 14.0993 17.5309 14.368 17.1996 14.368C16.8682 14.368 16.5996 14.0993 16.5996 13.768V5.03193C16.5996 4.70056 16.8682 4.43193 17.1996 4.43193C17.5309 4.43193 17.7996 4.70056 17.7996 5.03193V13.768ZM21.0636 11.8238C21.0636 12.1552 20.7949 12.4239 20.4636 12.4239C20.1322 12.4239 19.8636 12.1552 19.8636 11.8238V6.97606C19.8636 6.64469 20.1322 6.37605 20.4636 6.37605C20.7949 6.37605 21.0636 6.64469 21.0636 6.97606V11.8238ZM76.8556 16.28C76.8556 17.0692 75.6556 17.0692 75.6556 16.28V3.31995C75.6556 2.53072 76.8556 2.53072 76.8556 3.31995V16.28ZM73.5916 14.024C73.5916 14.8132 72.3916 14.8132 72.3916 14.024V5.57596C72.3916 4.78672 73.5916 4.78672 73.5916 5.57596V14.024ZM104.087 59.9592L104.426 60.2644C105.188 60.9493 106.362 61.0649 107.644 60.6981C110.613 59.8488 113.495 56.6445 114.025 53.6022C114.254 52.2893 114.015 51.1348 113.255 50.4492L112.914 50.146C112.948 50.6289 112.918 51.1388 112.827 51.6642C112.218 55.1607 109.005 58.7353 105.592 59.7117C105.078 59.8589 104.572 59.9424 104.087 59.9592ZM110.639 48.1233C109.881 47.6046 108.812 47.5426 107.655 47.8736C104.687 48.723 101.804 51.9273 101.274 54.9696C101.045 56.2839 101.284 57.4395 102.047 58.1248C102.808 58.8098 103.982 58.9254 105.264 58.5586C108.233 57.7091 111.115 54.5053 111.646 51.4626C111.893 50.0428 111.704 49.0704 110.639 48.1233ZM112.374 48.0623L114.052 49.554C115.247 50.7496 115.491 52.1712 115.206 53.8037C114.597 57.2993 111.385 60.8747 107.972 61.8513C106.297 62.3304 104.716 62.1362 103.625 61.155L101.245 59.0155C100.154 58.0347 99.7937 56.4834 100.093 54.768C100.702 51.2724 103.914 47.6971 107.327 46.7205C108.684 46.3323 109.979 46.3862 111.003 46.9423C111.53 47.2289 111.929 47.6672 112.374 48.0623ZM35.6288 65.4369L37.2446 68.199C37.9852 69.465 37.8564 71.0529 37.0494 72.5966C35.4059 75.7406 31.2559 78.1672 27.7144 78.0592C25.6828 77.9973 24.5668 77.3407 23.5616 75.7056C23.0462 74.8672 22.2409 73.6524 21.9689 72.9164C20.644 69.8059 23.8572 66.4041 26.3178 64.9647C28.8765 63.4679 33.7952 62.3027 35.6288 65.4369ZM23.0642 72.4365C23.7789 73.674 24.6839 74.0577 26.1314 74.1018C29.2214 74.196 32.942 72.0212 34.3742 69.2814C34.9919 68.0997 35.1152 66.9264 34.5975 66.0416C33.1615 63.5869 28.8243 64.8834 26.9225 65.9959C25.043 67.0954 22.0366 69.9734 23.0642 72.4365ZM24.8965 75.5989C25.4412 76.4009 26.4818 76.8253 27.7472 76.8639C30.8363 76.9581 34.5582 74.7827 35.99 72.0435C36.7129 70.6608 36.747 69.7158 35.9806 68.4059C35.8663 68.8791 35.6822 69.3589 35.4336 69.8345C33.6769 73.1951 28.8945 75.882 25.1131 75.1957C24.5931 75.1013 24.5171 74.9596 24.7529 75.3616C24.8006 75.443 24.8432 75.5205 24.8965 75.5989ZM24.6523 30.1616L22.2727 32.3012C21.1815 33.2823 19.6001 33.4765 17.9254 32.9974C14.5121 32.0208 11.3001 28.4455 10.6909 24.9499C10.4064 23.3174 10.65 21.8957 11.8456 20.7001L14.5458 18.3663C15.4744 17.5637 17.1787 17.4686 18.5701 17.8667C21.9835 18.8433 25.1955 22.4186 25.8047 25.9142C26.1036 27.6295 25.7431 29.1809 24.6523 30.1616ZM15.2588 19.2694L14.8331 19.6479C14.2233 20.3463 14.0431 21.4117 14.2517 22.6088C14.782 25.6514 17.6639 28.8552 20.6331 29.7048C21.9151 30.0716 23.089 29.9559 23.8508 29.271C24.613 28.5857 24.8525 27.4301 24.6234 26.1158C24.0933 23.0734 21.2107 19.8692 18.242 19.0198C17.085 18.6888 16.0162 18.7507 15.2588 19.2694ZM11.8721 24.7483C12.4023 27.7906 15.2848 30.9949 18.2536 31.8443C19.5355 32.2111 20.7093 32.0955 21.4711 31.4106C21.901 31.0241 21.8741 31.1311 21.3552 31.0708C21.0119 31.0309 20.6606 30.9596 20.305 30.8579C16.8926 29.8815 13.6798 26.3068 13.0705 22.8103C13.009 22.4576 12.9754 22.1118 12.9704 21.7764C12.9628 21.2656 12.9855 21.264 12.6211 21.5936C11.6946 22.4313 11.6674 23.5732 11.8721 24.7483ZM51.4428 104.705L51.4738 105.862L52.9589 104.781C52.4545 104.76 51.949 104.734 51.4428 104.705ZM50.3085 106.71L50.2447 104.629C49.7561 104.594 49.2669 104.557 48.777 104.515L38.1565 112.146C37.6846 112.487 37.6164 112.515 37.6505 113.228L37.7747 115.83L50.3085 106.71ZM62.6395 94.5002L62.6485 95.1997C64.0286 95.0979 65.3962 94.9628 66.7479 94.7956C69.6273 92.6797 72.5033 90.4911 75.4251 88.4411C76.3981 87.7584 76.7721 87.496 76.7785 87.0634L76.8204 84.2554L62.6395 94.5002ZM45.4952 94.7336L38.1632 87.7552L32.4276 91.8988C35.8434 92.9766 39.5352 93.8386 43.464 94.4456C44.1407 94.5501 44.8179 94.6461 45.4952 94.7336ZM62.5299 68.677C63.1803 68.2071 64.1311 68.292 64.6984 68.8554L77.6235 81.6913C77.9692 82.0738 78.0458 82.3148 78.0367 82.8624L77.9739 87.0775C77.9582 88.1269 77.4463 88.4862 76.1142 89.4208C73.7989 91.0452 71.524 92.7717 69.2431 94.4478C72.1613 93.9948 74.9938 93.3905 77.7062 92.6463C84.1383 90.8812 89.8887 88.3319 94.497 85.1518C95.1106 84.7284 95.2338 84.7222 94.4599 84.9089C93.1297 85.3326 91.8954 84.4032 91.0442 82.9958C90.4554 82.0224 90.0418 80.811 89.9265 79.6786C89.6974 77.4278 90.5394 76.451 92.4813 75.8691L106.428 71.6894C108.702 71.0082 109.93 71.19 111.331 72.8523L118.307 81.1262C119.425 82.3602 119.933 84.2977 119.257 85.8634C118.262 88.1702 114.669 89.635 112.747 87.7147L110.048 84.9355C108.869 83.4616 108.816 83.9412 107.786 85.2616C101.863 92.8535 92.2087 98.5329 80.6112 101.774C72.7531 103.97 63.9958 105.048 54.8999 104.844L38.2426 116.97C37.9185 117.206 37.5167 117.305 37.1304 117.274C36.7437 117.243 36.3613 117.082 36.0761 116.799L24.5732 105.391C23.472 104.236 22.8928 103.429 22.7405 101.821L22.5288 98.7633C22.5 98.346 22.478 98.3679 22.0884 98.199C9.34476 92.6752 -0.0488164 83.1755 0.444333 68.982C0.562243 65.5882 1.2617 61.7027 2.67443 58.6629C5.73896 52.0689 12.0893 46.2767 20.4313 41.9919C28.1655 38.0193 37.6222 35.3363 47.7588 34.511C46.397 33.8298 45.0398 33.1371 43.6652 32.4823C42.1565 31.7636 41.5848 31.4913 41.3946 30.4475L40.6372 26.2914C40.5515 25.8381 40.6085 25.4278 40.8542 25.0767L51.4901 10.2882C51.9563 9.64014 52.8811 9.39887 53.5992 9.75491L97.2144 31.3782C97.721 31.616 97.947 32.0737 97.9864 32.6457L98.3026 35.8981C98.4017 37.2931 98.547 37.5596 97.0803 39.7203L87.6124 52.867C87.1446 53.5166 86.2221 53.7513 85.5045 53.3923L64.2759 42.7733C64.0395 42.655 63.9531 42.6265 63.6944 42.6068C49.1791 41.4962 36.1684 43.94 26.2232 48.5778C15.7261 53.473 8.66743 60.7991 6.90912 68.9381C7.99246 78.4859 17.0659 85.3347 25.1526 89.093C26.9952 89.9493 28.9554 90.7341 31.0234 91.4383C41.5256 83.8512 52.0277 76.2641 62.5299 68.677ZM39.1502 87.0422L47.4749 94.9655C51.4756 95.3858 55.4689 95.5152 59.3836 95.3774L60.9534 94.2434L47.5449 80.9775L39.1502 87.0422ZM48.5282 80.2671L61.9367 93.533L76.7689 82.8178C76.8783 82.7387 76.8733 82.6326 76.7798 82.5398L63.8547 69.7038C63.7059 69.5561 63.3996 69.5236 63.2283 69.6473L48.5282 80.2671ZM62.6777 80.8177C62.0857 80.8177 61.6057 81.2621 61.6057 81.8103C61.6057 82.3585 62.0857 82.8028 62.6777 82.8028C63.2697 82.8028 63.7497 82.3585 63.7497 81.8103C63.7497 81.2621 63.2697 80.8177 62.6777 80.8177ZM66.9357 39.4592C66.9059 39.284 66.9553 39.1136 67.058 38.9848L78.2678 23.321L69.3243 18.8871L58.3557 34.2138L63.7344 36.8804C64.4403 37.2288 63.9107 38.3022 63.2047 37.9538L58.468 35.6055L59.1439 38.87L67.5668 43.0834L66.9357 39.4592ZM68.3327 40.4962L68.8992 43.7499L85.1221 51.865C85.8974 52.2528 85.7893 52.3335 85.6878 51.4741L85.4327 49.3162C85.3723 48.8534 85.3766 48.9462 84.9676 48.7434L68.3327 40.4962ZM57.7814 38.1885L57.107 34.9307L42.7011 27.7887C41.9256 27.4042 42.0454 27.3518 42.2021 28.2114L42.5712 30.2366C42.6502 30.6703 43.0708 30.8707 44.1808 31.3995C48.7327 33.5676 53.2661 35.9298 57.7814 38.1885ZM79.3539 23.8595L68.3853 39.1862L85.3604 47.6021C85.7485 47.8103 85.9435 47.7486 86.1622 47.4339L96.7423 32.7231C96.8196 32.6155 96.8067 32.5121 96.6847 32.4516L79.3539 23.8595ZM57.2696 33.6754L68.2382 18.3486L53.0695 10.8283C52.8794 10.7341 52.5832 10.816 52.4604 10.9867L42.0422 25.4726C41.8492 25.7409 41.7461 25.9792 42.0158 26.1129L57.2696 33.6754ZM82.8811 35.6436C83.4731 35.6436 83.953 36.088 83.953 36.6361C83.953 37.1843 83.4731 37.6287 82.8811 37.6287C82.289 37.6287 81.8091 37.1843 81.8091 36.6361C81.8091 36.088 82.289 35.6436 82.8811 35.6436ZM55.1531 21.9476C55.7451 21.9476 56.2251 22.392 56.2251 22.9401C56.2251 23.4883 55.7451 23.9327 55.1531 23.9327C54.5611 23.9327 54.0811 23.4883 54.0811 22.9401C54.0811 22.392 54.5611 21.9476 55.1531 21.9476ZM37.4737 111.206L46.9709 104.345C45.3248 104.175 43.6732 103.962 42.0191 103.707C35.889 102.76 30.2375 101.34 25.2051 99.4582L36.5256 111.108C36.8805 111.473 37.0477 111.514 37.4737 111.206ZM36.5706 115.604L36.4551 113.185C36.414 112.325 36.3529 112.648 35.8309 112.11L23.7958 99.725L23.9335 101.725C24.0979 103.067 24.5033 103.583 25.4386 104.564L36.5706 115.604ZM65.6717 96.1235C58.4616 96.908 50.8416 96.7948 43.2812 95.6268C36.8422 94.6321 30.5617 92.9274 24.651 90.1805C12.8624 84.7018 0.942663 73.2523 7.38485 59.3906C10.4228 52.8538 17.0036 47.4341 25.5994 43.6391C33.7006 40.0625 43.6093 37.9215 54.0282 37.647L49.8674 35.5658C39.1278 36.169 29.0824 38.8917 20.975 43.056C12.8684 47.2199 6.71152 52.8178 3.76193 59.1645C2.31504 62.2778 1.67477 65.6317 2.00103 69.0553C3.03181 79.8719 13.5099 88.1118 22.8332 92.4447C28.4156 95.0391 34.9404 97.0149 42.2019 98.1367C55.7901 100.236 69.3688 99.3626 80.8276 95.9675C92.0253 92.6498 101.182 86.9282 106.308 79.2281C106.537 78.884 106.556 78.8554 106.573 78.8288C106.965 78.2337 107.245 77.8087 107.542 77.5336C108.462 76.6832 109.038 77.0793 110.569 78.7339L114.062 82.5107C115.275 83.7101 116.529 83.5995 116.935 83.5101C118.366 83.1958 117.75 82.2951 117.181 81.6199L110.435 73.6187C109.287 72.2571 108.426 72.3419 106.713 72.855L92.8499 77.0096C90.244 77.7905 92.2187 80.0072 94.1137 79.3764L100.192 77.353C102.763 76.4974 105.262 75.8181 102.583 79.2841C100.702 81.7176 98.397 83.8167 95.9096 85.615C91.0653 89.1171 84.9213 91.9057 78.0202 93.7994C73.9764 94.909 69.8396 95.6701 65.6717 96.1235ZM86.6337 49.2635L86.8454 51.0549C86.9501 51.9409 86.863 51.8618 87.3819 51.1413L96.1006 39.0359C97.2505 37.3388 97.2183 37.5453 97.1073 35.9825L96.9613 34.4662L87.0767 48.21C86.7142 48.7141 86.5645 48.678 86.6337 49.2635ZM101.637 78.5528C102.289 77.8824 102.374 77.8709 100.372 78.5525L94.4886 80.5108C93.4832 80.8455 92.5612 80.7077 91.8511 80.3194C91.1219 79.9206 90.9021 79.1956 91.3492 80.7226C91.5199 81.3056 91.7674 81.8755 92.0707 82.3771C93.0328 83.9678 93.5264 83.9495 94.9299 83.5509C98.029 82.6709 99.4991 81.3182 101.637 78.5528ZM117.188 84.682C116.029 84.9368 114.459 84.6151 113.211 83.3527L109.692 79.5449C108.784 78.5631 108.492 78.2818 108.353 78.4101C108.164 78.5848 107.918 78.9598 107.572 79.4851C107.424 79.7102 107.347 79.8286 107.306 79.8891C102.017 87.8335 92.6256 93.7204 81.1651 97.116C69.5469 100.558 55.7851 101.445 42.0191 99.318C34.6383 98.1778 28.0061 96.1694 22.3316 93.5322C13.9028 89.6149 5.09921 83.0417 1.90445 73.9365C3.56429 85.2915 12.1635 92.494 22.2761 96.9535C28.7729 99.8185 35.8944 101.551 42.2019 102.526C55.649 104.603 68.9263 103.797 80.2925 100.621C91.6482 97.4474 101.082 91.9108 106.843 84.5257C108.447 82.4706 109.046 82.094 110.905 84.1019L113.595 86.87C114.89 88.1551 117.491 86.9293 118.156 85.39C118.982 83.4765 118.066 84.489 117.188 84.682Z" fill="white"/>
</svg>
