<?xml version="1.0" encoding="UTF-8"?>
<svg id="Layer_1" xmlns="http://www.w3.org/2000/svg" version="1.1" viewBox="0 0 204.96 187.67">
  <!-- Generator: Adobe Illustrator 30.1.0, SVG Export Plug-In . SVG Version: 2.1.1 Build 136)  -->
  <defs>
    <style>
      .st0, .st1 {
        fill: #17aa7b;
      }

      .st2, .st3 {
        fill: #fff;
      }

      .st2, .st1, .st4 {
        display: none;
      }

      .st5 {
        fill: #040404;
      }
    </style>
  </defs>
  <path class="st2" d="M741.44-358.38v906.88H-165.44V-358.38h906.88ZM188.99,79.19c-5.84-32.37-30.03-59.66-61.8-68.56C76.36-3.61,27.99,26.4,15.17,76.53c.85,1.27,1.64-.17,2.15-.87,1.37-1.85,2.17-4.86,3.59-6.99,11.03-16.57,32.61-23.52,51.54-18.42,8.32,2.25,25.14,11.09,22.68,21.6-.85,3.63-12.74,14.64-16.07,17.93-4.38,4.34-14.64,15.16-18.91,18.12-8.12,5.62-18.9-3.68-12.8-12.8,5.85-8.74,19.18-16.65,23.79-23.82.44-.68,1.2-2.13.72-2.68-.34-.39-8.89-2.22-10.17-2.3-33.58-2.16-43.52,45.21-12.48,56.31,36.82,13.17,42.81-35.17,57.86-55.47,16.99-22.91,52.39-24.89,71.74-3.85,4.48,4.87,6.2,10.87,10.19,15.88ZM560.06,58.78c.16.34.61.53.76.76,1.38,2.15,1.39,2.98,4.95,3.06,6.48.15,10.61-6.81,8.15-12.73-.58-1.39-1.55-.74-1.76-.91-.26-.21-.46-.6-.76-.76-.24-.12-.48-.67-.76-.76-.17-.21.49-1.18-.91-1.76-5.92-2.46-12.88,1.67-12.73,8.15.08,3.55.91,3.57,3.06,4.95ZM235.69,48.41c-17.92,2.03-35.65,17.59-39.66,35.16-1.9,8.32-.93,15.18-.95,23.17-.01,6.52-1.16,24.56.8,29.43,2.92,7.24,15.16,7.76,19.16,1.18,1.26-2.07,1.76-5.46,1.95-7.88,1.14-14.51-3.77-29.86,1.87-44.23,6.4-16.32,28.08-20.07,40.44-7.97,12.97,12.7,5.23,40.6,7.89,57.1,4.8,11.82,20.38,9.59,21.59-3.39,1.11-11.88.94-38.81-2.34-49.87-6.45-21.72-28.45-35.24-50.76-32.71ZM430.66,48.41c-19.27,2.18-35.77,17.99-39.55,36.78-2.13,10.62-2.11,36.13-1.13,47.3,1.12,12.66,15.48,13.45,18.42,4,2.58-8.29-.82-25.5-.29-35.05,1.17-21.05,13.96-40.77,37.58-31.47,6.79,2.67,13.01,11.44,21.03,4.69,11.61-9.78-9.75-21.9-17.95-24.39-6.08-1.85-11.74-2.58-18.12-1.86ZM312.94,134.36c40.33,27.67,91.74-19.12,67.39-61.72-22.68-39.68-82.8-26.74-87.78,18.28-1.18,10.68-.02,21.17.02,31.7.05,13.85-1.62,33.06-.05,46.15,1.02,8.47,11.79,11.73,17.71,5.58.44-.46,2.72-3.84,2.72-4.08v-35.9ZM561.23,95.85c0-25.88-20.98-46.86-46.86-46.86s-46.86,20.98-46.86,46.86,20.98,46.86,46.86,46.86,46.86-20.98,46.86-46.86ZM188.99,111.68c-3.03,2.69-4.01,7.43-6.17,10.82-13.34,20.89-48.47,26.84-67.13,9.97-4.37-3.95-7.28-7.57-3.34-13.18,7.55-10.75,18.98,4.3,28.67,5.23,38.92,3.72,43.93-54.26,6.7-58.09-31.4-3.23-35.05,35.73-49.09,55.01-20.48,28.12-61.93,28.14-80.17-2.44-.71-1.18-.42-5.93-3.28-4.67,17.56,75.03,116.54,95.5,160.53,30.53,6.52-9.64,12.14-21.46,13.29-33.18Z"/>
  <path class="st2" d="M570.64,47.45c.22.28.65.55.76.76.16.31.69.57.76.76,2.9,8.96-2.52,14.75-11.34,10.58-.15-.07-.41-.54-.76-.76-4.11-8.66,1.59-14.23,10.58-11.34ZM567.62,53.49c.09-.29,1.5-1.44.76-3.02h-4.54s0,6.79,0,6.79c2.11.43,1.47-.78,1.51-2.27l2.26.76c.14-.7-.17-1.69,0-2.27-1.27,1.13-3.41-.96-2.26-2.26.72-.82,3.06,1.55,2.26,2.26ZM568,56.52v.76c.49-.25.49-.5,0-.76Z"/>
  <g>
    <g class="st4">
      <path class="st5" d="M561.23,95.85c0,25.88-20.98,46.86-46.86,46.86s-46.86-20.98-46.86-46.86,20.98-46.86,46.86-46.86,46.86,20.98,46.86,46.86ZM543.35,95.88c0-16.01-12.98-28.99-28.99-28.99s-28.99,12.98-28.99,28.99,12.98,28.99,28.99,28.99,28.99-12.98,28.99-28.99Z"/>
      <path class="st5" d="M430.66,48.41c6.38-.72,12.04.01,18.12,1.86,8.2,2.49,29.56,14.61,17.95,24.39-8.02,6.76-14.24-2.01-21.03-4.69-23.62-9.3-36.41,10.42-37.58,31.47-.53,9.55,2.86,26.77.29,35.05-2.94,9.45-17.31,8.66-18.42-4-.99-11.17-1.01-36.68,1.13-47.3,3.77-18.8,20.27-34.61,39.55-36.78Z"/>
      <circle class="st3" cx="339.44" cy="95.59" r="29.01"/>
      <circle class="st3" cx="514.36" cy="95.88" r="28.99"/>
      <path class="st5" d="M312.94,134.36v35.9c0,.25-2.27,3.62-2.72,4.08-5.92,6.15-16.69,2.89-17.71-5.58-1.57-13.09.1-32.3.05-46.15-.04-10.52-1.2-21.02-.02-31.7,4.98-45.02,65.1-57.96,87.78-18.28,24.35,42.6-27.06,89.39-67.39,61.72ZM368.46,95.59c0-16.02-12.99-29.01-29.01-29.01s-29.01,12.99-29.01,29.01,12.99,29.01,29.01,29.01,29.01-12.99,29.01-29.01Z"/>
    </g>
    <g>
      <path class="st0" d="M188.99,111.68c-1.14,11.72-6.76,23.55-13.29,33.18-44,64.98-142.97,44.5-160.53-30.53,2.86-1.27,2.58,3.48,3.28,4.67,18.24,30.58,59.69,30.56,80.17,2.44,14.04-19.28,17.69-58.24,49.09-55.01,37.23,3.83,32.22,61.81-6.7,58.09-9.69-.93-21.13-15.97-28.67-5.23-3.94,5.61-1.03,9.23,3.34,13.18,18.66,16.88,53.79,10.92,67.13-9.97,2.17-3.39,3.14-8.13,6.17-10.82Z"/>
      <path class="st0" d="M188.99,79.19c-3.98-5.01-5.71-11.01-10.19-15.88-19.35-21.04-54.75-19.06-71.74,3.85-15.05,20.29-21.04,68.64-57.86,55.47-31.03-11.1-21.09-58.47,12.48-56.31,1.29.08,9.83,1.9,10.17,2.3.48.55-.28,1.99-.72,2.68-4.61,7.17-17.94,15.08-23.79,23.82-6.11,9.11,4.68,18.42,12.8,12.8,4.27-2.96,14.53-13.78,18.91-18.12,3.33-3.3,15.22-14.3,16.07-17.93,2.47-10.51-14.36-19.35-22.68-21.6-18.92-5.11-40.51,1.84-51.54,18.42-1.42,2.13-2.22,5.14-3.59,6.99-.52.69-1.3,2.14-2.15.87C27.99,26.4,76.36-3.61,127.19,10.63c31.77,8.9,55.96,36.19,61.8,68.56Z"/>
    </g>
  </g>
  <path class="st1" d="M571.4,48.2c-.1-.2-.53-.48-.76-.76.28.09.52.63.76.76Z"/>
  <path class="st1" d="M572.16,48.96c-.06-.19-.59-.45-.76-.76.29.15.5.55.76.76Z"/>
  <path class="st1" d="M572.16,48.96c.2.16,1.18-.49,1.76.91,2.46,5.92-1.67,12.88-8.15,12.73-3.56-.08-3.57-.91-4.95-3.06,8.82,4.17,14.24-1.62,11.34-10.58Z"/>
  <path class="st1" d="M560.06,58.78c-2.15-1.38-2.98-1.39-3.06-4.95-.15-6.48,6.81-10.61,12.73-8.15,1.39.58.74,1.55.91,1.76-8.99-2.9-14.69,2.67-10.58,11.34Z"/>
  <path class="st1" d="M560.82,59.54c-.15-.23-.59-.41-.76-.76.34.22.6.68.76.76Z"/>
  <path class="st1" d="M567.62,53.49c-.17.57.13,1.57,0,2.27l-2.26-.76c-.04,1.49.6,2.7-1.51,2.27v-6.8s4.53,0,4.53,0c.75,1.58-.67,2.73-.76,3.02.8-.71-1.54-3.08-2.26-2.26-1.15,1.3,1,3.39,2.26,2.26Z"/>
  <path class="st1" d="M568,56.52c.49.25.49.5,0,.76v-.76Z"/>
</svg>