<?xml version="1.0" encoding="utf-8"?>
<svg version="1.0" xmlns="http://www.w3.org/2000/svg" viewBox="0 0 400 400">
<g><path d="M397.14,299.57l-27.18,0.31c-11.08,0.12,3.82,11.03-2.92,35.12c-5.17,18.48-22.33,28.86-41.19,26.41c-15.86-2.06-28.44-12.45-32.11-28.22c-5.26-22.61,8.61-33.41-0.81-33.41l-55.85,0.01c-1.01,0-2.84,0.8-3.4,1.37c-2.86,2.93,9.87,22.84-4.11,44.45c-7.98,12.34-22.13,17.62-36.59,15.75c-16.2-2.1-28.88-13.19-32.11-29.29c-4.52-22.56,8.96-32.28-0.89-32.28L108,299.76c-1,0-3.36,0.97-3.95,1.64c-2.58,2.92,6.46,13.5,0.94,33.47c-5.1,18.46-22.23,28.96-41.14,26.55C48,359.39,35.29,348.96,31.67,333.2c-5.36-23.32,8.92-33.3-1.1-33.35l-26.62-0.14c-1.73-0.01-3.27-2.67-3.13-4.21c0.13-1.39,2.37-3.6,3.96-3.59l27.94,0.35c2.73,0.03,6.39,2.27,7.8,4.02c5.94,7.38-4.84,15.12-1.76,32.92c2.27,13.14,11.91,22.12,24.75,24.31c16.14,2.75,30.73-6.44,34.46-22.52c4.31-18.55-6.53-26.38-0.48-34.68c1.44-1.98,5.44-4.19,8.7-4.19l55.44,0.04c2.94,0,7.09,2.41,8.48,4.31c5.9,8.03-5.96,15.81-1.41,34.92c2.9,12.18,12.48,20.2,24.61,22.17c15.26,2.47,29.26-5.75,33.59-20.64c5.67-19.48-6.05-27.63-0.06-36.4c1.46-2.13,5.83-4.45,9.19-4.45l57.76,0.04c2.91,0,6.74,2.02,8.36,3.66c6.58,6.64-3.58,15.09-1.6,31.61c1.69,14.17,11.92,24.2,25.78,26.25c15.89,2.36,30.11-6.84,33.73-22.64c4.27-18.63-6.47-26.08-0.51-34.56c1.4-2,5.51-4.25,8.53-4.27l27.16-0.22c1.22-0.01,3.27,1.65,3.81,2.69C399.6,295.67,398.33,299.56,397.14,299.57z"/><path d="M213.52,259.62c8.09,14.27,15.65,36.94,2.12,50.04c-6.88,6.66-16.76,8.11-25.91,4.45c-7.58-3.04-13.74-10.71-14.8-20.11c-2.78-24.62,12.93-34.69,13-48.9l0.23-51.11c0.11-23.77,1.69-46.72,5.72-70c2.58-14.92,6.56-28.6,13.14-42.05c0.95-1.94,3.59-3.26,5.3-2.75c1.87,0.56,3.06,3.52,2.18,5.36c-10.33,21.65-12.5,35.76-15.69,59.03c2.3-0.23,4.05-0.38,5.5-0.34c1.19,0.03,1.95,3.4,1.82,4.83c-2.83,31.62-2.78,62.59,1.78,93.9C208.88,248.56,210.33,253.99,213.52,259.62z M215.22,290.43c-0.45-20.39-12.9-27.71-14.77-45.14l-3.08-28.73l-1.09-32.61l-0.42,55.01c-0.08,9.89-1.43,17.99-6.56,26.52c-5.24,8.72-8.22,19.32-6.22,29.36c1.8,9.01,10.13,14.32,18.4,13.31C209.68,307.13,215.44,299.97,215.22,290.43z"/><path d="M83.02,293.04c8.25,14.43,15.56,37.64,1.37,50.36c-7.01,6.29-16.59,7.46-25.45,3.79c-20.47-8.47-16.95-35.75-6.79-53.13c3.62-6.18,5.3-12.5,5.33-19.67l0.19-52.4c0.08-22.84,1.97-44.88,6.02-67.19c2.59-14.29,6.55-27.29,12.98-40.18c0.73-1.46,3.5-2.59,4.83-2.33c1.78,0.36,3.25,3.57,2.39,5.42c-10.32,22.12-12.66,35.68-15.57,58.87l5.06-0.35c1.23-0.09,2.26,3.36,2.14,4.77c-2.74,31.56-2.8,62.46,1.72,93.67C78.22,281.5,79.66,287.17,83.02,293.04z M76.08,296.68c-3.34-5.92-5.42-11.89-6.32-18.67c-1.5-11.35-2.69-22.25-3.3-33.57l-1.16-21.53l-0.05,52.06c-0.01,8.5-2.1,15.83-6.31,23.08c-7.43,12.82-12.56,34.75,2.71,41.76c5.59,2.56,11.68,2.23,16.64-1.6C90.55,328.76,82.4,307.87,76.08,296.68z"/><path d="M345.34,220.74c8.05,14.14,15.03,36.62,1.79,49.39c-7.05,6.8-17.12,8.17-26.5,4.16c-7.57-3.24-13.45-11.15-14.32-20.73c-2.26-24.86,13.14-32.54,13.2-49.76l0.17-49.82c0.08-24.17,1.75-47.54,6-71.17c2.62-14.55,6.54-27.76,13.11-40.91c0.87-1.75,4.11-2.71,5.6-1.97c1.65,0.82,2.28,3.81,1.41,5.61c-9.94,20.61-12.51,35.86-15.43,58.51c2.34-0.36,3.84-0.62,5.06-0.51c1.32,0.11,2.38,3.47,2.26,4.85c-2.87,31.36-2.79,62.19,1.61,93.31C340.29,208.78,341.85,214.61,345.34,220.74z M346.73,250.4c-0.78-20.44-12.29-25.62-14.9-45.43c-1.59-12.01-2.82-23.55-3.38-35.53l-1.13-24.52l0.02,57.04c0,8.85-2.11,16.18-6.5,23.79c-5.29,9.17-8.56,19.94-6.08,30.25c2.09,8.67,10.34,13.69,18.43,12.58C341.46,267.44,347.1,260.09,346.73,250.4z"/></g>
</svg>
