<?xml version="1.0" encoding="utf-8"?>
<svg version="1.0" xmlns="http://www.w3.org/2000/svg" viewBox="0 0 400 400">
<g><path d="M213.13,151.34c-8.35-8.32-21.98-8.49-30.14-0.37l-41.1,40.92c-5.24,5.22-12.48,8.81-20.17,8.82l-100.69,0.08c-2.14,0-4.24-1.99-4.42-3.42c-0.29-2.35,1.57-4.83,4.4-4.83l100.75-0.02c5.76,0,10.96-3.08,14.82-6.93l39.53-39.53c11.33-11.33,30.31-12.74,42-1.13l40.64,40.36c3.31,3.29,8.58,6.2,13.5,6.2l106.75,0.05c2.38,0,4.34,2.07,4.49,3.93c0.12,1.47-1.87,4.32-3.86,4.32l-106.34-0.05c-7.68,0-15.04-3.42-20.29-8.65L213.13,151.34z"/><path d="M349.05,269.08c9.84-6.56,34.17-12.73,34.34-4.66c0.18,8.53-12.41-0.1-30.38,11.77c-19.91,13.15-45.5,13.73-65.68,0.67c-16.99-11-38.38-10.85-55.35,0.07c-19.82,12.75-44.87,12.49-64.63-0.25c-16.74-10.8-38.01-10.64-54.68,0.13c-20.23,13.08-45.71,12.54-65.69-0.59c-17.33-11.39-29.64-4.08-30.41-10.76c-1.14-9.94,24.54-2.83,35.06,4.02c16.81,10.96,38.58,12.02,55.71,0.88c19.93-12.95,45.33-13.1,65.34-0.14c17.22,11.15,38.96,10.37,55.9-0.7c17.72-11.59,44.33-11.96,61.4-0.52C308.21,281.2,330.81,281.23,349.05,269.08z"/><path d="M233.31,226.34c2.59,21.07-14.4,37.91-33.91,38.17c-20.2,0.27-36.98-16.59-35.13-37.32c1.42-15.89,21.69-46.83,31.16-60.72c1.45-2.13,5.57-1.95,6.96,0.1C211.64,180.28,231.31,210.09,233.31,226.34z M225.42,226.2c-5.85-18.46-15.83-33.55-26.53-50.05c-10.52,15.91-21.89,33.46-26.72,51.02c-1.21,16.06,11.35,29.42,27.04,29.22C214.81,256.19,227.26,242.61,225.42,226.2z"/><path d="M201.56,102.71c-5.44,5.1-1.78,10.12-6.96,10.66c-2.29,0.24-4.74-1.71-4.64-4.34c0.18-4.83,2.56-8.97,5.9-12.15c3.66-3.49,3.88-8.52,0.05-11.98c-7.49-6.76-8.1-17.46-0.37-24.54c5.29-4.85,1.35-10.85,7.97-10.41c1.67,0.11,3.6,2.63,3.39,4.9c-0.95,10.46-8.82,11.13-8.77,17.63c0.01,1.78,1.61,4.8,3.09,6.17C208.51,85.43,208.85,95.87,201.56,102.71z"/><path d="M165.84,118.84c0.61,1.92-1.15,4.94-2.54,5.24c-6.21,1.32-3.77-5.07-10-8.36c-8.92-4.71-11.26-15.1-5.89-23.41c7.42-11.47-8.46-10.77-11.49-22.56c-0.45-1.75,1.12-4.73,2.54-5c6.39-1.22,3.95,5.22,9.64,8.1c9.45,4.79,11.69,15.55,6.02,24.13c-2.93,4.44-1.24,9.18,3.31,11.74C161.16,110.84,164.31,113.99,165.84,118.84z"/><path d="M243.6,115.72c-6.19,3.31-3.98,9.79-10,8.39c-1.37-0.32-3.02-3.18-2.61-4.86c1.17-4.82,4.52-8.32,8.56-10.55c4.88-2.69,5.83-7.77,2.89-12.29c-5.3-8.17-2.94-18.58,5.85-23.24c6.45-3.42,3.72-9.77,10.14-8.34c1.41,0.31,2.97,3.21,2.51,4.91c-2.74,10.17-11.34,9.71-12.9,15.19c-0.55,1.95,0.28,5.77,1.33,7.4C254.85,100.77,252.45,110.99,243.6,115.72z"/><path d="M121.99,221.52c9.85-1.75,18.06,4.95,19.69,13.35c1.88,9.64-4.44,18.4-13.37,20.07c-9.34,1.76-17.94-3.95-19.93-12.91C106.34,232.93,111.83,223.32,121.99,221.52z"/><path d="M68.95,316.51c9.75-2.42,18.52,3.59,20.69,12.21c2.33,9.24-3.18,18.53-12.51,20.81c-8.66,2.12-17.71-2.91-20.34-11.73C54.18,329.04,58.94,318.99,68.95,316.51z"/><path d="M355.93,225.63c9.73-2.49,18.54,3.46,20.78,12.1c2.38,9.2-2.99,18.55-12.35,20.86c-8.65,2.13-17.87-2.71-20.49-11.82C341.42,238.31,345.97,228.18,355.93,225.63z"/><path d="M207.96,318.49c9.7-2.91,18.83,2.58,21.41,11.58c2.51,8.76-2.33,18.38-11.8,21.06c-8.27,2.34-17.6-2.08-20.6-10.62C193.9,331.8,198.04,321.47,207.96,318.49z"/><path d="M311.97,305.65c9.67-3.22,19.05,2.32,21.71,11.05c2.72,8.92-1.99,18.36-11.13,21.3c-8.4,2.7-17.98-1.79-20.99-10.05C298.3,319.01,302.34,308.86,311.97,305.65z"/><path d="M147.94,275.56c7.97-1.79,14.58,3.41,15.91,10.2c1.42,7.24-2.93,14.02-10.21,15.59c-6.72,1.45-13.72-2.71-15.44-9.2C136.3,284.94,140.04,277.33,147.94,275.56z"/><path d="M273,293.47c7.8-1.45,14.22,3.79,15.45,10.67c1.27,7.15-3.38,14.01-10.65,15.33c-6.84,1.24-13.54-2.99-15.2-9.74C260.87,302.65,264.88,294.98,273,293.47z"/><path d="M288.94,232.46c7.59-2.32,14.56,2.09,16.59,8.52c2.23,7.06-1.62,14.56-8.51,16.68c-6.76,2.08-14.02-1.29-16.42-7.84C278.12,243.07,281.06,234.86,288.94,232.46z"/><path d="M255.93,211.7c5.98-2.19,11.82,0.87,13.68,6.18c1.87,5.32-0.55,11.52-6.46,13.57c-4.82,1.67-10.76-0.33-13.11-5.81C247.99,220.88,249.7,213.98,255.93,211.7z"/><path d="M76.99,247.41c6.27-1.06,11.15,3.41,12.03,8.23c1.14,6.24-2.8,11.56-8.52,12.48c-5.59,0.9-10.77-2.37-12.06-8.03C67.22,254.72,70.37,248.53,76.99,247.41z"/><path d="M320.91,209.65c6.08-2.44,12.1,0.79,13.92,6.03c1.88,5.41-0.47,11.32-6.01,13.48c-5.02,1.96-11.14-0.23-13.31-5.15C313.17,218.71,314.85,212.08,320.91,209.65z"/><path d="M357.96,287.46c7.55-2.47,14.6,1.68,16.78,8.25c2.32,6.97-1.34,14.53-8.42,16.84c-6.54,2.14-13.91-1.09-16.48-7.77C347.33,298.23,350.23,289.99,357.96,287.46z"/><path d="M72.94,206.51c7.73-1.82,14.25,3.18,15.84,9.33c1.96,7.57-2.61,14.64-9.39,16.28c-7.18,1.74-14.03-2.17-16.03-8.86C61.26,216.29,64.96,208.39,72.94,206.51z"/><path d="M166.97,309.61c7.28-3.04,14.85,0.45,17.53,7.23c2.57,6.51-0.21,14.37-7.6,17.28c-5.96,2.34-13.59-0.07-16.69-6.73C157.36,321.28,159.41,312.77,166.97,309.61z"/><path d="M129.35,326.28c5.85-1.21,11.04,2.55,12.32,7.67c1.46,5.82-2.05,11.42-7.45,12.78c-5.92,1.49-11.6-1.94-12.94-7.48C119.88,333.46,123.16,327.56,129.35,326.28z"/><path d="M255.97,331.42c5.98-2.18,11.81,0.88,13.66,6.19c1.87,5.36-0.55,11.58-6.67,13.63c-4.62,1.55-10.54-0.49-12.87-5.79C247.93,340.55,249.72,333.7,255.97,331.42z"/><path d="M36.99,228.48c5.93-2.15,11.77,0.99,13.59,6.2c1.88,5.38-0.61,11.64-6.63,13.63c-4.73,1.56-10.72-0.47-12.95-5.84C28.96,237.54,30.7,230.76,36.99,228.48z"/><path d="M100.98,290.46c6.11-2.63,12.14,0.17,14.32,5.72c1.92,4.9-0.28,11.05-5.28,13.28c-5.29,2.35-11.46,0.46-14.04-4.88C93.7,299.87,95.08,293,100.98,290.46z"/><path d="M35.93,290.59c5.95-2.76,12.19-0.22,14.49,5.27c2.04,4.88,0.26,11.19-5.28,13.65c-4.82,2.14-11.14,0.76-13.94-5.06C29.17,300.25,30.08,293.3,35.93,290.59z"/><path d="M230.04,290.67c5.78-2.85,11.81-0.47,14.3,4.55c2.5,5.03,0.7,11.48-4.62,14.12c-4.77,2.38-10.85,0.85-13.71-3.8C223.07,300.77,224.23,293.53,230.04,290.67z"/></g>
</svg>
