<?xml version="1.0" encoding="UTF-8"?>
<svg data-bbox="27.1 18.331 3798.501 1303.759" viewBox="0 0 3840 1384.06" xmlns="http://www.w3.org/2000/svg" data-type="color">
    <g>
        <path d="m2402.51 627.42-166.38.16-215.88-320.02-.54 319.83h-165.52l-.01-596.22 166.36-.27 215.87 314.48.52-314.32 165.54-.07z" fill="#000000" data-color="1"/>
        <path d="m1205.2 1309.18-166.34.36-215.64-319.71-.82 319.66-165.79-.13V713.51l166.38-.14 215.8 314.7.48-314.6 165.91-.01z" fill="#000000" data-color="1"/>
        <path d="M415.78 322.35c37.67 15.06 68.23 37.28 84.66 73.11 22.84 49.82 16.72 109.03-15.01 153.65-19.83 27.88-47.11 45.78-78.47 58.98-32.62 11.61-65.23 18.68-100.88 18.7l-278.98.15V31.08l268.89.24c36.99.03 71.07 7.67 104.42 20.73 30.87 13.48 56.67 32.47 75.66 60.19 27.26 41.63 32.11 93.67 12.99 139.64-14.53 32.14-39.49 53.91-73.28 70.47m-104.59-62.02c16.78-7.8 25.79-22.62 25.7-38.88-.1-16.2-8.83-29.86-23.92-38.18-9.69-4.16-21.05-7.93-32.01-7.92l-80.95.08v91.26l70.05.33c13.93.07 27.9-.53 41.13-6.68ZM344.3 434.3c.32-17.86-9.21-32.77-25.45-41.74-10.8-4.67-22.5-7.25-34.66-8.32l-84.11.1-.05 98.41 87.05-.18c26.01-.05 56.64-16.47 57.22-48.27" fill="#000000" data-color="1"/>
        <path d="M2502.88 938.01c30.24 132.9-20.11 267.92-145.24 331.62-49.96 24.8-103.69 39.08-160.69 39.21l-219.3.48.02-595.9 219.28.57c57.01.15 110.79 14.55 160.72 39.42 73.87 38.11 126.78 103.61 145.2 184.6Zm-174.91 25.56c-10.12-36.12-35.19-64.55-69.59-79.33-20.67-8.88-42.45-13.89-65.24-13.77l-40.86.21.02 281.22 38.66.08c22.32.04 43.84-4.15 64.44-12.37 72.19-28.78 91.52-108.39 72.57-176.03Z" fill="#000000" data-color="1"/>
        <path d="m3376.79 1099.77 154.9 209.45-205.44.2-115.94-186.67-2.39 186.75-173.95-.16V713.49l232.39.5c45.6.1 88.19 10.23 128.51 28.64 49.96 24.03 85.79 65.47 98.89 119.06 24.85 101.7-15.62 195.29-116.97 238.08m-66.47-128.35c20.19-22.79 19.04-58.6-1.85-79.66-25.31-25.52-64.23-21.26-99.82-21.39l-.07 124.32c33.53.04 76.67 5.02 101.74-23.28Z" fill="#000000" data-color="1"/>
        <path d="m905.11 31.17 175.44-.25.05 358.01c-1.01 108.84-59.28 203.45-165.06 237.85-64.79 21.07-135.57 21.34-200.52.71-106.46-33.8-163.6-129.79-164.38-238.65l-.02-357.77 174.72-.1.03 357.83c1.03 40.58 16.97 80.09 58.58 91.56 21.46 5.91 43.9 5.53 65-1.51 39.98-13.35 55.1-51.99 56.23-91.95l-.05-355.74Z" fill="#000000" data-color="1"/>
        <path d="m2947.38 1080.35-214.71.26.3 73.92 238.5.03.02 154.88-413.23-.09V713.52l413.11-.12.19 154.73-238.62.14-.21 71.5 214.56.09z" fill="#000000" data-color="1"/>
        <path d="m2864 398-214.58.14-.19 73.99 238.77.05.04 154.86-413.2-.09V31.07l413.15-.09.1 154.85-238.5.08-.4 71.52 214.66.05z" fill="#000000" data-color="1"/>
        <path d="M3452.81 616.72c-20.85-8.31-37.95-16.45-56.64-28.12l.02-161.28c55.94 43.49 132.85 71.17 203.29 60.42 22.18-4.88 48.06-16.77 47.13-41.41s-34.49-37.3-55.19-45.08l-66.99-25.17c-28.61-10.75-54.21-26.1-77.32-45.68-36.15-30.61-54.94-72.63-55.59-119.74-1.31-94.73 63.3-161.69 152.99-183.81 82.07-17.91 168.76-7.6 243.23 32.71l-.06 152.62c-50.73-30.44-108.34-45.5-167.66-43.65-21.25 1.92-55.24 9.11-56.93 33.1-1.45 20.62 29.55 32.67 47.89 39.43l69.25 25.51c28.02 10.32 53.74 23.73 77.68 40.85 45.17 32.31 67.87 81 67.69 135.94-.35 108.28-77.84 177.4-181.76 192.68-64.43 9.47-128.7 2.31-191.01-19.31Z" fill="#000000" data-color="1"/>
        <path d="M1195.33 618.46c-22.65-8.47-41.34-17.16-61.67-29.88l.05-160.95c56.45 42.65 129.49 70.22 201.74 60.36 22.76-4.75 49.51-16.31 48.64-41.64-1.65-48.37-120.48-48.17-200.45-116.78-35.57-30.52-53.99-72.39-54.62-119.07-1.25-92.66 60.76-159.15 148.4-182.51 83.02-19.51 170.66-9.66 247.68 31.34l.1 153.13c-50.83-31.24-108.49-45.44-167.31-44.03-21.12 1.92-55.58 9.15-57.36 33.06-1.63 22.02 33.22 34.15 52.82 41.44l76.27 28.4c24.43 9.1 46.3 22.05 67.11 37.12 44.47 32.21 66.43 80.57 66.31 134.93-.14 70.22-35.31 132.43-98 165.49-79.75 42.05-184.3 38.25-269.72 9.58Z" fill="#000000" data-color="1"/>
        <path d="M3281.98 599c-81.37 53.85-199.58 49.36-288.74 18.28-21.5-7.5-40.59-17.12-59.13-29.15l.32-160.37c41.05 30.63 83.28 49.87 131.14 58.78 23.67 3.89 46.51 4.64 70.13 1.51 21.74-4.27 48.49-15.7 49.04-39.61.54-23.07-27.89-36.85-47.95-44.35l-64.59-24.13c-77.69-29.02-141.58-80.21-142.6-169.47-1.1-96.09 65.2-163.37 156.5-184.4 81.08-16.87 166.2-6.27 239.71 33.44l-.04 152.65c-51.46-30.85-109.83-45.89-169.68-43.52-21.19 2.26-55.2 10.22-54.97 34.76.52 55.42 230.78 47.11 259.06 203.42 13.55 74.9-13.5 149.37-78.17 192.18Z" fill="#000000" data-color="1"/>
        <path d="M1321.36 1299.9c-22.28-8.55-41.27-17.07-60.21-29.64l.11-160.82c56.51 43.48 132.05 70.83 203.09 60.37 21.75-4.9 47.94-16.53 47.29-40.81-1.36-51.03-125.95-48.22-205.57-122.22-31.79-29.55-48.38-68.51-49.44-111.78-2.33-95.16 62.24-163.48 152.42-185.96 82.06-18.2 167.87-8.13 243.63 32.27l.04 152.92c-51.81-31.12-108.88-45.51-167.75-43.64-16.84 1.57-31.53 4.78-45.49 13-6.31 5.73-11.12 12.72-11.48 20.48-.99 20.87 28.64 32.23 46.98 38.86l68 24.59c28.12 10.17 53.9 23.45 78.01 40.31 46.46 32.48 69.95 81.99 69.61 138.13-.65 107.55-77.36 176.23-180.47 191.82-63.52 9.6-127.04 2.96-188.78-17.88Z" fill="#000000" data-color="1"/>
        <path d="m584.79 1309.13-174.73.4-.02-595.96 174.7-.23z" fill="#000000" data-color="1"/>
        <path d="m1905.85 1309.11-174.7.44-.04-596.01 174.7-.17z" fill="#000000" data-color="1"/>
        <path d="m1781.94 626.77-174.57.26-.01-595.99h174.57z" fill="#000000" data-color="1"/>
        <path d="M344.3 434.3c-.58 31.81-31.21 48.22-57.22 48.27l-87.05.18.05-98.41 84.11-.1c12.16 1.07 23.86 3.65 34.66 8.32 16.24 8.96 25.77 23.88 25.45 41.74" fill="#ffffff" data-color="2"/>
        <path d="M311.19 260.33c-13.22 6.14-27.2 6.74-41.13 6.68l-70.04-.33v-91.26l80.94-.08c10.96-.01 22.32 3.76 32.01 7.92 15.08 8.32 23.82 21.98 23.92 38.18.1 16.27-8.91 31.09-25.7 38.88Z" fill="#ffffff" data-color="2"/>
    </g>
</svg>
