<?xml version="1.0" encoding="UTF-8"?>
<svg data-bbox="14.742 8.1 1215.548 237.31" viewBox="0 0 1253 253" xmlns="http://www.w3.org/2000/svg" data-type="color">
    <g>
        <path fill="#383136" d="m1072.22 41.26 35.21.05-39.51 168.63-38.87.03-19.93-95.21-19.33 95.21-39.75-.02-39.26-168.57 43.45-.26 20.38 98.05 19.58-98.12 36.44.12 20.6 96.98z" data-color="1"/>
        <path d="M436.35 189.93c-33.61 29.71-83.65 29.01-116.37-.72-38.36-34.84-36.59-95.18 3.65-127.88 35.77-29.06 88.67-25.11 119.65 9.3 31.24 34.7 28.43 88.04-6.94 119.29Zm-43.03-27.48.22-74.37c.02-8.21-8.98-14.05-15.93-13.67s-14.17 6.61-14.16 14.6l.09 73.94c0 7.9 8.27 13.08 14.92 12.98s14.84-5.12 14.87-13.48Z" fill="#000000" data-color="2"/>
        <path fill="#383136" d="m782.3 209.57-41.13.35-57.95-97.3-.24 97.25-43 .03.33-167.84 49.09-.09 50.57 84.1.28-84.39 42.04.16z" data-color="1"/>
        <path d="m596.52 209.68-54.06.32-24.91-41.43-24.15 41.26-53.02-.18 50.04-86.6-48.19-80.84 53.93-.28 20.98 34.81 20.2-34.7 54.08-.01-47.02 80.45z" fill="#000000" data-color="2"/>
        <path d="M1190.46 207.98c-37.9 12.03-83.47-4.01-91.36-48.01l40.74-8.96c2.16 6.59 4.57 12.44 9.97 16.13 7.6 5.19 17.53 6.29 26.12 3.69 5.42-1.64 8.5-6.15 8.37-11.01-.14-5.18-3.37-9.61-8.78-11.14l-20.18-5.73c-25.89-7.35-48.52-18.86-49.61-48.85-.85-23.53 11.42-44.39 33.53-53.15 14.32-5.68 29.91-6.92 45.08-3.6 20.96 4.58 34.76 19.84 41.94 40.58l-37.45 12.59c-3.34-11.08-11.81-17.4-22.83-17.08-5.84.17-11.3 1.84-14.2 7.33s-.5 12.61 5.97 14.48l35.63 10.33c11.39 3.3 22.01 9.43 28.68 19.63 9.69 14.81 10.67 33.39 3.64 51.06-5.54 13.93-18.75 26.46-35.26 31.7Z" fill="#383136" data-color="1"/>
        <path fill="#383136" d="m890.66 141.87-55.1.02.04 28.57 67.75.08.07 39.43-110.42.05V41.09l109.42-.03.09 39.51-66.8.06-.21 24.64 55.13.14z" data-color="1"/>
        <path d="M176.42 126.14c.51 5.55.3 12.27-.01 17.87-9.4-14.31-18.83-27.37-31.1-38.79L21.71 243.58l99.72-157.91c-6.92-5.15-14.23-9.46-22.96-13.75L17.95 245.41 62.26 58.13c-15.9-4.18-30.9-5.88-47.44-6.23-.12-3.35-.1-6.4.05-9.87 17.25.15 32.44 2.08 49.74 6.43L74.4 8.1l53.17.17-24.9 54.34c8.85 4.81 16.21 9.19 24.43 14.44l43.97-68.94 59.85.07-20.79 23.77h-33.39l-.1 37.45-24.58 28.05c8.76 9.21 16.86 17.93 24.36 28.68Z" fill="#383136" data-color="1"/>
        <path d="M283.83 109.72v46.02l-48.33.06-.1 54.26-49.18-.24.02-168.2 105.22.03 3.31 46.14-58.89.1.04 21.75z" fill="#000000" data-color="2"/>
        <path fill="#383136" d="m212.16 242.78-8.95-.01-.48-10.67-.89-12.11 9.8.04z" data-color="1"/>
    </g>
</svg>
