<?xml version="1.0" encoding="UTF-8"?>
<svg data-bbox="18.865 22.803 862.445 455.225" viewBox="0 0 900 500" xmlns="http://www.w3.org/2000/svg" data-type="color">
    <g>
        <path d="M437.93 378.91c32.88-48.62 46.42-107.14 37.44-165.05l-77.17-.28c1.02-10.58 5.14-20.68 6.61-30.36l63.4-.04c-6.03-21.67-16.13-40.84-28.43-58.97-1.06-1.56-1.94-2.76-2.08-4.3 41.99-57.44 107.06-92.93 179.25-95.24 38.05-1.22 75.14 4.94 110.06 19.1 60.17 24.38 104.86 73.77 123.4 135.93 7.22 24.22 10.65 48.62 10.97 74.12.36 21.69-3.04 42.35-9.52 63.07-7.6 24.05-18.37 46.01-32.65 66.76l62.1 86.33-139.78-.03-14.6-18.85c-37.87 21.35-79.95 30.13-122.96 25.89-69.39-6.83-126.15-42.76-166.07-98.09ZM580.3 264.88l141.56-.15 12.12 15.83c14.75-48.43-15.15-96.27-56.07-119.55-31.75-18.06-69.47-18.12-101.65-.85-37.51 20.13-59.21 61.23-53.94 103.77 6.62 53.35 60.38 95.33 115.1 84.26l-57.13-83.31Z" fill="#383136" data-color="1"/>
        <path d="M437.71 119.91c.14 1.53 1.02 2.74 2.08 4.3 12.31 18.14 22.41 37.31 28.43 58.97l-63.4.04-74.72-.19-11.37-10.65c-15.05-14.09-32.61-21.42-52.87-24.45-41.22-6.18-82.11 10.65-105.51 45.64-21.15 31.62-22.39 73.71-2.46 106.48 20.78 34.18 59.26 53.68 98.92 51.81 25.36-2.61 48.92-12.18 67.13-30.97l-58.14-.47-.06-106.73 132.48-.12 77.17.28c8.99 57.91-4.56 116.42-37.44 165.05-44.1 60.23-111.97 97.88-188.12 97.69-40.09-.1-79.75-10-114.76-29.64-56.83-31.88-97.55-87.09-111.14-150.57-13.3-62.13-.15-125.58 36.45-177.15 37.91-53.43 96.94-88.74 162.56-95.17 35.68-3.5 70.58.26 104.18 11.9 26.85 9.31 50.09 23.03 71.56 41.44 14.84 12.72 26.61 27.36 39.04 42.52Z" fill="#010101" data-color="2"/>
    </g>
</svg>
