<?xml version="1.0" encoding="UTF-8"?>
<svg data-bbox="41.27 351.66 1838.8 376.551" viewBox="0 0 1920 1080" xmlns="http://www.w3.org/2000/svg" data-type="shape">
    <g>
        <path d="m59.66 375.94-18.39-1.12v-17.76c1.46-.46 3.06-1.39 4.66-1.39 28.08-.13 56.16.08 84.23-.32 8.7-.12 8.37 6.29 9.63 11.35 15.17 61.23 30.17 122.51 45.24 183.77.74 3.02 1.7 5.99 4.77 9.17 3.71-15.84 7.46-31.67 11.12-47.53 11.31-49.05 22.78-98.06 33.65-147.21 1.69-7.66 4.97-9.66 12.18-9.57 24.52.32 49.05.16 73.57.1 6.01-.02 11.41-.23 11.22 8.52-.15 7.2-.42 12.65-10.12 11.8-2.19-.19-5.35 3.75-6.95 6.45-1.1 1.86-.31 4.85-.31 7.34 0 99.52-.01 199.04.02 298.56 0 4.21.36 8.42.57 13.08 2.18.5 3.79 1.09 5.44 1.21 10.34.71 14.45 6.68 10.66 16.56-.72 1.89-4.03 3.94-6.15 3.96-33.36.25-66.72.17-100.93.17v-19.12c1.14-.59 1.73-1.14 2.35-1.18q19.37-1.23 19.37-20.5V477.63c-.98-.2-1.96-.39-2.95-.59-19.19 81.81-38.37 163.62-57.38 244.69-1.4.68-1.71.94-2.04.97q-30.79 2.75-37.87-27.19c-16.94-71.02-33.94-142.02-50.93-213.02-.23-.98-.65-1.91-2.33-2.82v222.21h21.49v20.41H41.6v-19.28c5.57-.33 11.42-.68 18.06-1.07V375.93Z"/>
        <path d="M1101.8 722.65H993.11V703.9c.97-.49 1.57-1.03 2.19-1.07q20.26-1.25 20.26-21.82c0-38.74-.27-77.49.19-116.22.11-9.29-2.53-12.54-12.03-12.17-17.75.68-35.54.3-53.31.16-5.45-.04-8.62 1.25-8.59 7.67.21 45.85.18 91.7.27 137.55 0 .99.57 1.98 1.17 3.92 6.72.35 13.68.7 21.45 1.1v19.43H854.14v-18.41c.89-.51 1.46-1.11 2.08-1.16q16.56-1.27 16.56-17.98V394.87q0-18.16-18.65-20.43v-18.25c4.3-.25 8.46-.69 12.62-.7 27.72-.06 55.45-.04 83.17-.03 17.22 0 17.45.3 14.41 19.32-3.2.19-6.61.48-10.03.58-3.49.1-6.99.02-11.44.02v154.31c18.4 0 36.75.09 55.1-.03 19.2-.12 17.56 2.54 17.59-17.75.06-40.16 0-80.33.03-120.49.01-19.09-.01-15.84-16.14-16.07-1.76-.02-3.51-.24-6.17-.43v-18.51h108.69v17.48c-.86.49-1.44 1.08-2.05 1.12q-15.8 1.15-15.8 17.78v292.16q0 16.73 17.7 18.15v19.55Z"/>
        <path d="M1679.9 378.73c-1.98-18.24-1.97-18.11 14.95-19.93 20.4-2.19 40.77-4.62 62.88-7.14v122.18c1.37.87 2.73 1.74 4.1 2.61 2.32-3.35 4.16-7.21 7.03-9.98 17.77-17.11 39.13-20.93 62.19-14.63 19.48 5.32 30.79 23.76 30.91 49.57.28 60.08.14 120.16.16 180.24q0 18.98 17.95 22.14v18.34h-95.21v-19.02c4.38-.42 8.5-.82 13.1-1.26.34-2.67.91-5.05.91-7.44.04-61.5.24-123-.32-184.5-.06-6.33-3.01-14.97-7.65-18.23-4.07-2.86-13.7-1.67-18.48 1.42-4.97 3.21-8.19 10.5-10.14 16.65-2.1 6.63-2.47 14-2.49 21.06-.19 53.68-.13 107.36-.1 161.04 0 3.11.43 6.22.69 9.67 4.03.61 7.43 1.13 11.58 1.75v19.12h-87.18v-19.62c12.63 1.99 13.13-5.29 13.11-14.54-.22-95.98-.14-191.97-.14-287.95q0-18.49-17.86-21.54Z"/>
        <path d="M689.97 722.51h-89.48v-19.1c4.06-.53 8.14-1.06 13.57-1.77.24-3.13.71-6.49.71-9.86.04-59.36.04-118.73 0-178.09 0-3.19.64-6.91-.73-9.46-2.66-4.91-5.65-11.28-10.14-13.18-6.92-2.94-15.79-1.73-19.75 5.87-3.99 7.65-7.93 16.48-8.03 24.84-.67 59-.35 118-.32 177 0 .66.43 1.31.94 2.76 3.28.57 6.96 1.2 11.16 1.92v18.83h-94.14v-18.29c.86-.48 1.44-1.07 2.06-1.12q16.52-1.2 16.53-17.97V497.2q0-17.91-18.16-19.9V458c25.92-2.86 51.91-5.73 79.21-8.74v24.61c1.68 1.28 3.37 2.56 5.05 3.85 1.39-3.21 2-7.17 4.28-9.52 17.44-18.04 39.04-22.98 62.59-16.62 19.45 5.25 28.01 20.74 30.38 39.71 1.14 9.14 1.26 18.44 1.27 27.67.11 55.81.05 111.62.05 167.43v14.98c5 .77 8.74 1.35 12.94 2v19.16Z"/>
        <path d="M1435.36 701.89c4.91.56 8.37.95 12.75 1.45v18.98c-2.56.3-4.61.75-6.66.75-20.56.05-41.11.03-62.7.03-.48-8.32-.92-15.84-1.51-25.98-3.98 4.84-6.42 7.6-8.63 10.52-13.58 17.94-32.25 22.81-53.15 19.02-20.55-3.72-31.44-18.5-36.14-37.68-5.83-23.82-5.57-47.91.55-71.69 5.28-20.56 18.8-35.04 37.08-44.52 15.07-7.81 30.98-14.09 46.8-20.3 6.09-2.39 9.25-4.94 8.97-12.04-.59-14.91-.16-29.86-.47-44.78-.09-4.19-1.01-8.43-2.03-12.52-1.95-7.78-7.98-10.76-15.19-10.91-7.4-.16-13.84 3.28-15.18 10.82-1.79 10.04-2.17 20.37-2.65 30.6-.4 8.49-.08 17.01-.08 26.48h-53.15c-10.13-40.36 19.56-83.05 62.92-89 13.8-1.89 28.45-1.39 42.21.97 29.96 5.15 45.9 27.2 46.12 62.32.36 57.95.14 115.9.17 173.85v13.64Zm-63.66-129.45c-14.76 5.07-26.07 15.54-29.95 29.72-6.74 24.63-6.33 49.73-2.22 74.75 1.14 6.94 4.77 12.58 13.19 12.93 8.2.34 13.79-3.63 16.54-10.81 1.85-4.84 2.81-10.31 2.88-15.51.36-27.99.33-55.99.37-83.99 0-2.31-.51-4.63-.8-7.09Z"/>
        <path d="M1265.58 586.93c-27.84 0-55.16-.01-82.48 0-14.32 0-15.01.07-14.09 14.77 1.44 22.97 2.73 46.07 6.32 68.75 2.92 18.44 13.57 27.1 27.77 27.29 15.98.21 28.14-9.32 32.07-27.13 2.65-12.03 3.2-24.52 4.78-37.57h22.49c1.17 23.92.04 47.03-12.69 67.96-10.99 18.07-28.5 24.93-48.52 26.24-49.66 3.26-82.48-20.46-95.11-71.1-12.09-48.49-11.47-97.26 5.88-144.64 11.07-30.23 29.16-55.04 63.44-61.36 31.86-5.88 63.25 4.02 77.43 38.99 9.02 22.25 16.06 71.49 12.71 97.79Zm-58.6-22.44c0-17.97.33-34.57-.15-51.15-.22-7.38-1.8-14.77-3.26-22.06-1.54-7.7-4.74-14.75-13.95-14.97-9.74-.23-13.11 6.94-15.1 15.04-.34 1.38-1.05 2.71-1.15 4.09-1.51 20.52-2.91 41.05-4.43 61.57-.41 5.51 1.95 7.66 7.41 7.54 9.92-.22 19.85-.06 30.62-.06Z"/>
        <path d="M469.97 632.64h22.34c.92 26.5-.09 52.07-16.95 73.99-10.94 14.23-26.78 19.41-43.95 20.59-49.48 3.4-81.76-19.18-95.1-69.57-13.09-49.45-12.11-99.34 5.89-147.65 11.1-29.8 29.56-54.08 63.43-60.01 30.87-5.41 61.97 3.82 76.19 37.78 13.09 31.27 13.17 64.26 14.89 98.49-4.78.25-8.87.64-12.97.65-25.94.06-51.89.24-77.83-.08-7.38-.09-10.37 2.29-9.64 9.81 2.38 24.66 2.81 49.66 7.23 73.94 4 21.98 19.67 30.61 38.9 25.66 11-2.83 18.35-10.14 20.76-20.76 3.11-13.7 4.51-27.79 6.81-42.83Zm-33.47-68.61c0-17.53.62-33.77-.23-49.93-.51-9.76-2.14-19.8-5.35-28.99-3.97-11.37-17.67-12.26-24.14-2.02-2.76 4.37-5.05 9.64-5.55 14.71-2.02 20.39-3.29 40.86-4.7 61.31-.11 1.57.83 3.22 1.31 4.92h38.67Z"/>
        <path d="M1535.31 352.81v349.02c6.69.41 12.5.77 18.86 1.16v19.14h-93.8v-18.99c3.79-.44 7.22-.83 12.25-1.41V400.35q0-19.01-17.94-21.16c-5.37-15.75-3.33-18.79 12.18-20.26 18.37-1.74 36.67-4.13 55.02-6.05 4.12-.43 8.31-.06 13.43-.06Z"/>
        <path d="M702.56 626.15h18.76c1.88 13.47 3.19 26.81 5.77 39.9 1.48 7.54 4.21 15.1 7.79 21.91 7.65 14.54 22.5 20.52 37.94 16.35 11.81-3.18 18.62-13.94 19.54-29.76.88-15.17-4.29-28.2-14.56-38.71-12.4-12.69-25.69-24.52-38.78-36.51-23.61-21.62-38.05-47.12-36.93-80.33 1.18-34.82 22.13-60.86 56.48-67.78 24.34-4.91 47.99-1.78 71.01 7.32 6.33 2.5 9.32 5.87 9.16 13.3-.53 23.41-.19 46.84-.19 71.17h-18.46c-1.48-10.2-2.24-21.13-4.85-31.61-2.36-9.49-5.63-19.13-10.52-27.53-6.92-11.88-20.86-16.03-33.5-12-10.19 3.25-16.1 13.34-16.57 27.19-.68 20.06 10.1 34.23 23.81 46.73 12.08 11 24.96 21.12 36.96 32.21 25.99 24 35.62 53.98 30.99 88.75-4.25 31.97-29.23 55.69-64.26 59.9-23.95 2.88-47.42-.35-70.09-8.92-6.63-2.5-9.93-5.93-9.73-13.96.65-25.5.24-51.04.24-77.61Z"/>
        <path d="M1551.28 456.2c18.86 6.96 24.33-5.66 30.07-19.18 6.65-15.66 15.2-30.53 21.45-46.33 4.28-10.81 10.73-14.79 21.7-12.86 2.42.43 4.92.37 8.65.62v75.12h29.37q16.01 0 15.61 16.44c-.05 2.08-.34 4.16-.64 7.63h-43.91c-.34 4.87-.79 8.35-.79 11.83-.04 60.41-.03 120.82.02 181.23 0 4.61.36 9.23.7 13.84.45 6.12 2.14 11.42 9.65 11.62 8 .21 10.38-5.17 10.7-11.78.61-12.41.88-24.83 1.21-37.25.12-4.52.02-9.05.02-14.23h22.64c-.16 22.63 3.6 45.6-4.94 67.8-4.44 11.53-12.79 19.89-24.56 23.59-18.52 5.82-37.24 5.29-55.12-2.46-17.96-7.79-22.16-24.37-22.43-41.5-.8-51.51-.69-103.04-.92-154.57-.06-13.5.35-27.03-.36-40.49-.15-2.83-3.94-7.45-6.58-7.86-14.89-2.28-15.01-2.04-11.55-21.23Z"/>
        <path d="M669.18 355.12h54.01c-.66 11.9-.09 23.6-2.21 34.81-3.41 18.1-8.63 35.85-12.99 53.78-4 16.45-3.95 16.46-22.54 14.25v-45.68c-6.12-.51-10.93-.92-16.27-1.37v-55.79Z"/>
    </g>
</svg>
