<?xml version="1.0" encoding="UTF-8"?>
<svg data-bbox="0 -0.02 2560 425.02" viewBox="0 0 2560 425" xmlns="http://www.w3.org/2000/svg" data-type="color">
    <g>
        <path d="M2.85 425H0v-9c.09-9.55 4.1-19.15 8.82-28.33 15.02-29.13 47.34-34.95 76.96-28.5l36.95 8.05c14.76 3.21 45.68 6.73 54.49-8.96 3.12-5.54 4.56-11.55 4.56-18.5l.05-284.58-25.44 14.51-.2 201.17c-.04 41.59-42.02 63.38-78.9 65.92 5.65-5.95 10.22-9.88 12.96-16.46 4.14-8.8 6.48-18.28 6.5-28.33l.12-67.99c-19.13-1.41-36.37 1.5-40.47 23.29-11.5-8.1-15.82-20.33-15.15-33.23 1.51-29.21 27.62-42.23 54.92-40.07l.19-32.05c.11-19.05 7.49-36.33 20.55-50.07 9.21-10.04 19.66-17.32 31.33-24.68L262.46 1.14l69.05 49.23 83.27-47.55c9.41 11.17 19.65 20.35 33.12 25.51 18.92 6.21 38.65 5.11 58.44-1.7-1.23 20.47-13.6 37.18-30.49 47.07l.02 276.15c13.63 9 24.99 17.42 41.56 20.9l-49.45 47.27-26.1-21.9-36.38-28.41-67.41 51.44c-36.04-25.82-92.23-34.13-129.37-7.42-.93.21-2.21-1.38-1.67-2.73 9.71-24.26 27.52-44.02 51.23-56.09l.02-128.03h-69.62l-.03 137.01c-.2 24.65-11.46 45.27-35.07 53.58-13.83 4.87-28.32 5.31-42.85 2.68-28.47-5.15-46.08-15.32-76.37-10.88-12.93 1.89-23.11 8.4-31.52 17.73Zm255.48-251.15-.09-102.53-46.32-33.29-23.26 13.75.03 122.16zm158.62-.02-.03-101.9c-21.24-5.24-39.04-16.8-52.23-33.85l-15.14 9.81.03 126.06zm-74.79 182.1V51.47l-24.35 14.37v283.49c8.3 1.38 16.04 4.4 24.35 6.6m54.02 12.11c6.67-5.7 12.93-11.31 20.71-16.66l.05-127.61-67.97-.03.07 134.82c14.66 7.73 32.35 22.12 47.14 9.48" fill="#0d68b2" data-color="1"/>
        <path d="M1616 0h1c25.79 23.37 60.65 26.08 94.93 13.64-3.79 20.59-17.47 37.6-35.67 47.61v292.18c12.77 3.2 24.57 7.7 35.04 15.41l-42.31 45.21c-32.38-29.28-78.72-25.85-114.91-2.04 2.9-22.2 16.42-40.63 33.85-52.94 8.85-5.76 17.83-9.3 28.28-10.85l-.03-127.86-99.09.08v137.61c3.74 3.55 9.51 4.37 13.91 1.78 5.25-3.09 8.63-7.8 12.38-12.59 1.74.31 3.88 1.84 4.41 3.85l-29.89 35.76c-7.48 8.95-14.12 17.49-21.22 27.24-41.64-29.46-100.3-30.85-144.85-6.1-1.29.72-1.81-2.8-1.36-3.77 3.38-7.33 6.75-14.73 11.44-21.38 31.61-49.67 98.51-49.95 148.9-27.83L1510.86 3c2.17-1.33 4.79-1.27 6.8.12l.02 167.4h99.07l.01-107.02c-15.57-3.34-29.55-10.07-40.58-21.2L1614.9 2c.69-.72.86-1.46 1.1-2.02Z" fill="#0c67b2" data-color="2"/>
        <path d="M2558.99 157.93v156.88c.01.91.64 1.3 1.01 1.19v22.66c-36.69 19.88-69.94 45.72-100.89 74.86l-71.85-50.3-.07-180.82 79.8-44.75-62.24-62.33c-8.27-9.67-18.45-15.57-29.71-21.86l46.84-36.45zm-62.22 214.29 9.4-7.58V177.28l-35.78-34.5-29.93 17.65-.02 175.46c18.26 13.05 36.53 25.42 56.33 36.35Z" fill="#0c67b2" data-color="2"/>
        <path d="m980.63 201.3-37.8-26.17-27.39 21.02.02 176.39 14.44 9.49-36.29 35.89-31.95-24.85V201.31c-5.68-5.4-11.34-9.88-17.61-14.28-4.47-3.36-9.22-4.57-15.63-6.36l38.37-41.29 54.98 42.96 54.31-42.41 60.03 42.42 52.58-43.49 64.13 40.58.05 179.54c9.58 7.26 20.27 11.1 32.3 14.1l-37.37 44.39-48.78-35.6V202.86l-42.3-26.05-22.28 17.56v178.18l15.09 9.89-37.23 35.53-31.63-25.32-.03-191.36Z" fill="#0c67b2" data-color="2"/>
        <path d="M679.6 417.42c-29.3-15.05-47.5-46.19-47.37-79.35-.12-35.84 24.51-57.99 56.34-70.17-11.81-9.32-23.91-16.17-37.52-22.48l-.13-57.88c28.34-13.81 55.22-29.26 81.53-47.64l74.26 49.33v173.59c8.49 6.82 17.06 12.28 27.4 14.81l-33.09 39.24-54.99-41.25-66.42 41.8Zm40.39-155.07c10.86.52 20.95 2.23 32.24 4.96l-.03-56.04-56.17-39.31c-1.09-.95-2.23-1.16-3.08-.63-.73.46-1.83 1.35-1.83 2.84l.1 92.47c10.4-2.1 19.18-3.98 28.77-4.28Zm-3.71 123.35 36-21.55-.03-88.17c-24.76-6.3-53.59-11.09-63.42 18.99-5.04 17.95-4.25 36.97.75 55.08 4.82 14.58 13.18 27.21 26.7 35.64Z" fill="#0d68b2" data-color="1"/>
        <path d="m2164.53 371.67-67.18 41.82c-33.14-17.48-51.86-54.77-46.16-92.2 5.72-29.56 28.1-46.74 55.34-57.37-12-9.39-24.31-16.26-37.62-23.14l.04-58.4c28.55-13.81 55.18-28.7 81.38-46.95l74.32 49.23v173.52c8.33 6.98 17.19 12.57 28.27 15.07l-33.5 39.67-54.87-41.24Zm6.24-108.58-.02-55.74c-18.88-13.78-37.13-27-56.5-39.6-1.51-.98-2.84-.69-3.89.1-.85.64-1.33 1.63-1.33 3.23l.1 91.66c25.13-5.86 36.49-5.4 61.63.36Zm-35.87 118.07 35.86-21.44.08-88.13c-11.14-3.45-22.81-5.16-34.85-4.55-37.48 1.9-35.32 55.94-27.12 80.92 5.16 13.76 13.44 25.65 26.04 33.21Z" fill="#0d68b2" data-color="1"/>
        <path d="m2368.31 370.45-38.71 42.4-48.85-35.38-.02-287.32c.32-10.09-5.24-17.2-14.5-22.52l68.76-49.94.16 337.53 16.24 9.17c5.06 2.89 9.76 3.73 16.92 6.07Z" fill="#0c67b2" data-color="2"/>
        <path d="m1960.57 189.62.11 158.59c10.05 6.14 20.08 11.6 30.53 16.69 19.14 9.32 26.37-8.58 30.12-7.03 1.46.6 3.51 2.44 2.03 4.34l-50.32 52.45-66.22-45.84V196.91c-8.28-9.77-18.93-15.83-31.55-20.82l36.79-41.15 49.75 39.97c14.44-12.71 27.44-25.21 40.67-39.46 14.62 15.17 33.49 24.2 54.49 25.28 1.29.29 2.41.37 2.93 1.03s.69 1.94.17 3.04c-10.92 22.91-28.8 38.95-55.49 36.72-24.29-2.03-30.06-15.66-38.24-20-3.34-1.77-5.79 4.3-5.79 8.08Z" fill="#0d68b2" data-color="1"/>
        <path d="m1835.39 362.66 14.84-13.8c1.3-1.21 3.88 2.14 4.71 3.75l-59.74 60.93-65.62-45.77-.08-168.89 95.21-62.83 53.77 83.17-95.12 58.35-.02 67.95 32.91 19.28c6.48 3.1 13.65 3.28 19.14-2.14m-51.93-92.63 46.3-28.79-41.66-71.93c-2.22.33-3.63 1.26-4.83 3.06l.18 97.66Z" fill="#0c67b2" data-color="2"/>
        <path d="M1425.29 220.62c-20.44-.94-40.91-1.59-46.15 23.14-10.54-7.57-14.57-19.56-14.49-31.76.17-25.43 20.8-41.03 44.36-41.38l15.57-.23.44-34.39c.48-37.21 30.46-65.18 66.81-73.76-7.33 17.63-7.57 36.85-7.59 55.87l-.14 127.82c-.02 19.39-7.64 36.75-19.93 51.28-21.32 25.21-55.92 35.35-50.41 28.92 7.19-8.39 11.46-17.99 11.47-29.19l.05-76.31Z" fill="#0c67b2" data-color="2"/>
        <path d="m625.09 374.09-36.94 43.92-48.87-35.72-.05-188.72c-6.79-6.62-14.12-9.89-22.94-13.48l35.94-40.08 40.87 29.93.03 189.71c9.65 6.93 19.83 10.97 31.96 14.43Z" fill="#0d68b2" data-color="1"/>
        <path d="m1257.26 417.93-48.92-35.46-.04-188.48c-6-6.73-13.58-10.04-22.51-13.62l36.12-40.42 40.23 30.04.04 189.68c9.83 7.27 20.68 10.98 31.91 14.6l-36.83 43.67Z" fill="#0d68b2" data-color="1"/>
        <path d="M1492.36 16.35c-12.71 27.04-33.44 56.33-67.79 44.09-9.82-3.5-19.63-6.56-29.87-7.99-18.56-2.59-36.33 5.67-44.98 22.16-1.33.12-2.51-1.13-2.37-2.62 1.03-10.97 3.87-21.06 8.59-30.9 12.55-26.15 41.12-39.26 68.93-30.88l24.55 7.39c15.06 4.53 30.77 2.2 43.71-7.84 1.92 2.23.26 4.41-.76 6.59Z" fill="#0d68b2" data-color="1"/>
        <path d="M171.85 14.75c-11.85 27.61-33.77 59.62-68.1 48.47-9.93-3.23-19.45-6.47-29.72-8.31-33.54-6.01-45.58 22.2-47.55 22.24-.87.02-2.05-.75-1.9-2.12 1.3-11.97 4.4-22.92 10.06-33.33C48.13 16.91 76.09 5.01 103.1 13.13l25.29 7.61c13.98 4.2 28.45 1.64 40.13-7.09.89-.66 3.79.04 3.34 1.11Z" fill="#0d68b2" data-color="1"/>
        <path d="m564.4 101.31-37.51-28.86L558 37.98c11.92 10.61 23.52 20.08 36.19 29.99l-29.8 33.34Z" fill="#0d68b2" data-color="1"/>
        <path fill="#0d68b2" d="m1263.18 67.85-29.74 33.46-37.49-28.74 31.03-34.55z" data-color="1"/>
    </g>
</svg>
