<?xml version="1.0" encoding="UTF-8"?>
<svg id="Layer_1" xmlns="http://www.w3.org/2000/svg" version="1.1" viewBox="0 0 700 700">
  <!-- Generator: Adobe Illustrator 30.1.0, SVG Export Plug-In . SVG Version: 2.1.1 Build 136)  -->
  <defs>
    <style>
      .st0 {
        display: none;
        fill: #fdfefe;
      }

      .st1 {
        fill: #006fce;
      }

      .st2 {
        fill: #016fce;
      }
    </style>
  </defs>
  <polygon class="st1" points="294.1 179.91 214.58 359.88 278.66 360.07 278.72 520.01 477.18 520 508.53 485.75 539.83 519.97 600.03 520.02 600.02 599.45 100.19 599.42 100.02 99.46 599.93 99.24 600.04 180.01 526.59 180 509.67 226.34 493.03 180 398.32 180.03 397.84 240.58 370.61 180.09 294.1 179.91"/>
  <path class="st2" d="M561.7,244l-35.36,95.81-33.66.2-35.57-95.71-.52,95.67-80.64.03-12.01-27.98h-63.99s-11.85,27.99-11.85,27.99l-42.02-.17,61.78-139.98,49.29-.05,61.46,138.67.24-138.66,59.86.05,31.1,86.36,31.39-86.36,58.82-.06v140.19s-37.94.03-37.94.03l-.37-96.02ZM350.65,280.21l-18.72-44.82-18.59,45.13,37.31-.31Z"/>
  <path class="st2" d="M534.01,429.56l65.83,70.46-49.99.2-40.98-45-41.16,44.96-167.92.03v-140.23s169.2.02,169.2.02l40.72,44.66,40.76-44.56,49.47.09-65.94,69.36ZM338.04,446.04l.04,21.44,80.84.16.56,31.62,65.2-69.13-65.36-69.26-.49,31.81-80.75.06v21.52s78.78.07,78.78.07l.21,31.56-79.02.16Z"/>
  <polygon class="st2" points="599.85 470.32 561.37 429.88 599.96 389.33 599.85 470.32"/>
  <polygon class="st0" points="350.65 280.21 313.34 280.51 331.93 235.39 350.65 280.21"/>
  <polygon class="st0" points="338.04 446.04 417.06 445.88 416.86 414.33 338.08 414.26 338.08 392.74 418.83 392.68 419.32 360.87 484.68 430.13 419.47 499.26 418.92 467.64 338.07 467.49 338.04 446.04"/>
</svg>