<?xml version="1.0" encoding="UTF-8"?>
<svg xmlns="http://www.w3.org/2000/svg" version="1.1" viewBox="0 0 700 700">
  <!-- Generator: Adobe Illustrator 30.1.0, SVG Export Plug-In . SVG Version: 2.1.1 Build 136)  -->
  <defs>
    <style>
      .st0 {
        fill: #fdfefe;
      }

      .st0, .st1, .st2, .st3, .st4, .st5 {
        display: none;
      }

      .st6 {
        fill: #ff0015;
      }

      .st7 {
        fill: #e1e6ea;
      }

      .st8 {
        fill: #fc6c02;
      }

      .st9 {
        fill: #030303;
      }

      .st1 {
        fill: #fefefe;
      }

      .st2 {
        fill: #016fce;
      }

      .st10 {
        fill: #ff9f00;
      }

      .st3 {
        fill: #006fce;
      }

      .st11 {
        fill: #ff5f00;
      }

      .st12 {
        fill: #fc6c03;
      }

      .st4 {
        fill: #e0e5e9;
      }
    </style>
  </defs>
  <g id="Layer_1">
    <polygon class="st3" points="294.1 179.91 214.58 359.88 278.66 360.07 278.72 520.01 477.18 520 508.53 485.75 539.83 519.97 600.03 520.02 600.02 599.45 100.19 599.42 100.02 99.46 599.93 99.24 600.04 180.01 526.59 180 509.67 226.34 493.03 180 398.32 180.03 397.84 240.58 370.61 180.09 294.1 179.91"/>
    <path class="st2" d="M561.7,244l-35.36,95.81-33.66.2-35.57-95.71-.52,95.67-80.64.03-12.01-27.98h-63.99l-11.85,27.99-42.02-.17,61.78-139.98,49.29-.05,61.46,138.67.24-138.66,59.86.05,31.1,86.36,31.39-86.36,58.82-.06v140.19l-37.94.03-.37-96.02h0ZM350.65,280.21l-18.72-44.82-18.59,45.13,37.31-.31Z"/>
    <path class="st2" d="M534.01,429.56l65.83,70.46-49.99.2-40.98-45-41.16,44.96-167.92.03v-140.23l169.2.02,40.72,44.66,40.76-44.56,49.47.09-65.94,69.36h0ZM338.04,446.04l.04,21.44,80.84.16.56,31.62,65.2-69.13-65.36-69.26-.49,31.81-80.75.06v21.52l78.78.07.21,31.56-79.02.16h-.01Z"/>
    <polygon class="st2" points="599.85 470.32 561.37 429.88 599.96 389.33 599.85 470.32"/>
    <polygon class="st0" points="350.65 280.21 313.34 280.51 331.93 235.39 350.65 280.21"/>
    <polygon class="st0" points="338.04 446.04 417.06 445.88 416.86 414.33 338.08 414.26 338.08 392.74 418.83 392.68 419.32 360.87 484.68 430.13 419.47 499.26 418.92 467.64 338.07 467.49 338.04 446.04"/>
    <g>
      <path class="st1" d="M55.78,635.77V46.4h589.37v589.37H55.78ZM565.09,524.84c24.05-2.56,43.23-23.57,43.23-48.25v-135.07s-.13-139.67-.13-139.67c0-4.77-1.61-9.04-3.14-13.18-6.58-17.82-22.59-29.63-41.65-31.77H137.53c-19.15,2.15-34.92,14.03-41.72,31.74-2.38,6.19-3.22,12.1-3.22,18.98l.05,270.36c0,5.63,1.33,10.58,3.2,15.51,6.72,17.67,22.25,29.45,41.29,31.68l114.41.25,12.14.36,300.25-.05c.85,0,1.02-.62,1.16-.9Z"/>
      <path class="st7" d="M608.33,341.52l-7.58,13.14c-10.05,17.42-30.64,39.17-46.49,51.66l-10.76,8.47-12.26,8.79c-1.28-.36-1.89.39-2.71,1.36-1.41,1.67-6.14,3.34-6.1,4.48-17.65,10.9-35.8,21-54.66,29.66-.81-.76-6.74,2.83-8.75,2.92l-1.99.09c-.38.02-.3,1.12-.8,1.39-.19.11-7.83,3.79-5.56,3.4-15.85,6.48-31.54,12.97-47.89,18.76l-29.21,9.72c-39.43,12.5-79.02,21.91-119.45,29.79l308.35.11c1.2,0,1.89-.36,2.64-.44-.13.28-.31.9-1.16.9l-300.25.05-12.14-.36-114.41-.25c-19.04-2.23-34.57-14.01-41.29-31.68-1.87-4.93-3.2-9.88-3.2-15.51l-.05-270.36c0-6.89.85-12.79,3.22-18.98,6.8-17.71,22.57-29.58,41.72-31.74h425.87c19.06,2.14,35.07,13.95,41.65,31.77,1.53,4.14,3.13,8.41,3.14,13.18l.13,139.67ZM282.52,351.72c-2.8-7.05-2.72-14.54.2-21.26,4.59-10.59,15.99-16.16,27.07-13.02,4.26,1.21,7.47,3.73,11.15,6.32l.09-15.82c-4.9-1.64-9.58-4.67-15.08-4.78-19.88-.43-37.12,15.08-38.81,34.88-1.33,15.6,6.73,30.03,20.8,36.48,10.67,4.89,22.53,4.31,33.08-.34l-.13-15.79c-5.11,5.23-11.13,7.52-18.1,7.24-8.95-.36-16.85-5.28-20.27-13.9ZM185.98,329.12c-2.1-8.41-7.38-15.06-14.69-19.5-5.91-3.37-12.33-5.29-19.26-5.3l-22.58-.03v73.58s21.11.01,21.11.01c6.6,0,12.72-1.63,18.46-4.67,15.11-8.65,21.04-27.72,16.96-44.09ZM206.83,377.78l-.02-73.5h-13.51s0,73.64,0,73.64l13.54-.14ZM247.3,376.64c10.27-3.01,16-12.05,16.04-22.28.05-14.14-10.67-17.95-22.05-22.95-2.63-1.16-5.5-2.14-7.48-4.31-2.23-2.45-1.19-6.19,1.17-8.22,6.13-4.2,14.05-2.71,18.4,3.8l7.37-9.89c-8.08-8.56-20.76-10.95-31.24-6.17-7.67,3.49-11.78,11.03-11.66,19.21.26,18.85,23.64,17.77,29.16,25.46,3.42,4.76.9,11.46-4.61,13.43-7.73,2.77-16.08-1.06-19.64-8.77l-8.51,8.4c6.47,12.05,20.23,16.06,33.05,12.3ZM356.57,377.5c22.14,3.59,42.03-12.3,43.04-34.47.51-11.29-3.77-22.01-11.83-29.31-8.44-7.64-19.61-10.72-30.92-9.06-18.24,2.67-31.05,18.12-31.04,36.43.02,18.15,12.45,33.45,30.75,36.42ZM451.07,304.46l-19.57,47.46-19.63-47.62-14.72.06,30.67,73.56c2.82-.05,4.96.21,7.47-.16l30.57-73.44-14.79.15ZM510.1,345.97l-.14-12.24h-24.42s-.02-17.19-.02-17.19l25.78-.09-.07-12.21-39.23.02v73.64s39.3-.02,39.3-.02l-.08-12.23-25.7-.03v-19.62s24.57-.05,24.57-.05ZM549.54,347.34c13.39-3.85,17.78-15.46,15.03-27.38-2.4-10.43-12.04-15.62-22.09-15.64l-22.58-.05v73.61s13.43.03,13.43.03l.45-30.15,20.55,30.16,16.96-.2-21.76-30.37Z"/>
      <path class="st8" d="M565.09,524.84c-.75.08-1.44.44-2.64.44l-308.35-.11c40.43-7.88,80.02-17.29,119.45-29.79l29.21-9.72c16.36-5.79,32.05-12.28,47.89-18.76l12.33-5.04c1.75-.72,3.42-1.65,4.77-2.76,18.86-8.66,37.01-18.77,54.66-29.66,1.89-.13,3.64-1.25,5.1-2.67.72-.7,1.92,0,2.77-.44.69-.35.81-2.02.94-2.74l12.26-8.79,10.76-8.47c15.85-12.48,36.44-34.24,46.49-51.66l7.58-13.14v135.07c0,24.68-19.18,45.69-43.23,48.25Z"/>
      <path class="st12" d="M356.57,377.5c-18.3-2.96-30.74-18.27-30.75-36.42-.02-18.31,12.8-33.76,31.04-36.43,11.32-1.66,22.49,1.42,30.92,9.06,8.06,7.31,12.34,18.03,11.83,29.31-1.01,22.17-20.9,38.06-43.04,34.47Z"/>
      <path class="st9" d="M185.98,329.12c4.08,16.37-1.85,35.44-16.96,44.09-5.74,3.04-11.86,4.68-18.46,4.67h-21.11s0-73.6,0-73.6l22.58.03c6.93.01,13.34,1.93,19.26,5.3,7.31,4.43,12.59,11.09,14.69,19.5ZM172.21,332.16c-4.12-12.72-16.45-16.58-29.22-15.57v48.99c5.13.21,9.76,0,14.37-1.37,14.53-4.35,18.98-19.29,14.85-32.05Z"/>
      <path class="st9" d="M549.54,347.34l21.76,30.37-16.96.2-20.55-30.16-.45,30.15-13.43-.03v-73.61s22.57.05,22.57.05c10.05.02,19.69,5.21,22.09,15.64,2.75,11.93-1.64,23.53-15.03,27.38ZM550.61,327.07c-.14-4.91-2.96-8.52-7.46-9.75-3.18-.86-6.5-1.02-9.73-.62v21.74c3.53.46,7.12.26,10.47-.9,4.47-1.55,6.85-5.51,6.71-10.47Z"/>
      <polygon class="st9" points="510.1 345.97 485.52 346.01 485.53 365.63 511.23 365.66 511.31 377.89 472.01 377.91 472.01 304.27 511.24 304.25 511.3 316.46 485.53 316.55 485.54 333.72 509.96 333.73 510.1 345.97"/>
      <path class="st9" d="M247.3,376.64c-12.83,3.77-26.58-.25-33.05-12.3l8.51-8.4c3.55,7.71,11.9,11.54,19.64,8.77,5.51-1.97,8.02-8.67,4.61-13.43-5.52-7.7-28.91-6.62-29.16-25.46-.11-8.18,3.99-15.72,11.66-19.21,10.48-4.77,23.15-2.38,31.24,6.17l-7.37,9.89c-4.34-6.51-12.27-8-18.4-3.8-2.36,2.04-3.4,5.77-1.17,8.22,1.98,2.17,4.85,3.15,7.48,4.31,11.38,5,22.1,8.81,22.05,22.95-.04,10.23-5.77,19.27-16.04,22.28Z"/>
      <path class="st9" d="M451.07,304.46l14.79-.15-30.57,73.44c-2.51.37-4.65.11-7.47.16l-30.67-73.56,14.72-.06,19.63,47.62,19.57-47.46Z"/>
      <path class="st9" d="M282.52,351.72c3.43,8.62,11.32,13.54,20.27,13.9,6.97.28,12.99-2.01,18.1-7.24l.13,15.79c-10.55,4.65-22.41,5.23-33.08.34-14.07-6.45-22.13-20.88-20.8-36.48,1.69-19.79,18.92-35.31,38.81-34.88,5.5.12,10.18,3.14,15.08,4.78l-.09,15.82c-3.69-2.6-6.9-5.12-11.15-6.32-11.07-3.14-22.48,2.43-27.07,13.02-2.92,6.72-3,14.21-.2,21.26Z"/>
      <polygon class="st9" points="206.83 377.78 193.3 377.92 193.3 304.27 206.81 304.27 206.83 377.78"/>
      <path class="st4" d="M467.76,459.09c-1.36,1.11-3.02,2.04-4.77,2.76l-12.33,5.04c-2.28.39,5.36-3.3,5.56-3.4.5-.27.42-1.37.8-1.39l1.99-.09c2.01-.09,7.94-3.67,8.75-2.92Z"/>
      <path class="st12" d="M531.23,423.58c-.13.72-.26,2.39-.94,2.74-.85.43-2.05-.26-2.77.44-1.46,1.42-3.21,2.54-5.1,2.67-.04-1.14,4.69-2.81,6.1-4.48.82-.97,1.44-1.73,2.71-1.36Z"/>
      <path class="st4" d="M172.21,332.16c4.13,12.76-.32,27.7-14.85,32.05-4.61,1.38-9.24,1.58-14.37,1.37v-48.99c12.77-1.01,25.1,2.84,29.22,15.57Z"/>
      <path class="st4" d="M550.61,327.07c.14,4.96-2.24,8.92-6.71,10.47-3.35,1.16-6.94,1.36-10.47.9v-21.74c3.22-.39,6.55-.24,9.72.62,4.5,1.22,7.32,4.84,7.46,9.75Z"/>
    </g>
  </g>
  <g id="Layer_2" class="st5">
    <g>
      <path class="st6" d="M354.25,208.36c-12.83,11.04-24.79,22.99-34.91,36.86-26.28,36.02-38.74,80.23-35.45,124.45,3.94,52.98,29.59,100.22,70.34,133.26-33.75,27.28-77.4,41.27-120.9,39.95-98.87-2.99-178.24-82.68-181.23-181.48-1.59-52.56,18.84-103.25,56.46-139.91,33.34-32.49,77.66-51.5,124.41-53,43.76-1.4,87.23,12.61,121.28,39.87Z"/>
      <path class="st10" d="M355.24,502.91c42.11-33.48,67.99-82.86,70.83-137.12,2.08-39.72-8.41-79.27-30.26-112.68-11.2-17.12-25-31.7-40.38-44.75,56.73-45.21,135.96-52.66,200.62-19.23,36.14,18.69,65.28,48.62,83.02,85.23,13.12,27.07,19.37,56.92,18.51,86.95-1.41,49.29-22.25,95.84-57.72,129.8-67.24,64.36-171.94,69.43-244.62,11.8Z"/>
      <path class="st11" d="M355.43,208.36c15.37,13.05,29.18,27.62,40.38,44.75,21.85,33.41,32.34,72.96,30.26,112.68-2.84,54.27-28.72,103.65-70.83,137.12l-1.01.02c-40.75-33.04-66.4-80.28-70.34-133.26-3.29-44.22,9.17-88.43,35.45-124.45,10.12-13.87,22.08-25.81,34.91-36.86.54.13.87.08,1.18,0Z"/>
    </g>
  </g>
</svg>