<?xml version="1.0" encoding="UTF-8"?>
<svg xmlns="http://www.w3.org/2000/svg" version="1.1" viewBox="0 0 700 700">
  <!-- Generator: Adobe Illustrator 30.1.0, SVG Export Plug-In . SVG Version: 2.1.1 Build 136)  -->
  <defs>
    <style>
      .st0 {
        fill: #fdfefe;
      }

      .st0, .st1 {
        display: none;
      }

      .st2 {
        fill: #ff0015;
      }

      .st3 {
        fill: #006fce;
      }

      .st4 {
        fill: #ff9f00;
      }

      .st5 {
        fill: #016fce;
      }

      .st6 {
        fill: #ff5f00;
      }
    </style>
  </defs>
  <g id="Layer_1" class="st1">
    <polygon class="st3" points="294.1 179.91 214.58 359.88 278.66 360.07 278.72 520.01 477.18 520 508.53 485.75 539.83 519.97 600.03 520.02 600.02 599.45 100.19 599.42 100.02 99.46 599.93 99.24 600.04 180.01 526.59 180 509.67 226.34 493.03 180 398.32 180.03 397.84 240.58 370.61 180.09 294.1 179.91"/>
    <path class="st5" d="M561.7,244l-35.36,95.81-33.66.2-35.57-95.71-.52,95.67-80.64.03-12.01-27.98h-63.99l-11.85,27.99-42.02-.17,61.78-139.98,49.29-.05,61.46,138.67.24-138.66,59.86.05,31.1,86.36,31.39-86.36,58.82-.06v140.19l-37.94.03-.37-96.02h0ZM350.65,280.21l-18.72-44.82-18.59,45.13,37.31-.31Z"/>
    <path class="st5" d="M534.01,429.56l65.83,70.46-49.99.2-40.98-45-41.16,44.96-167.92.03v-140.23l169.2.02,40.72,44.66,40.76-44.56,49.47.09-65.94,69.36h0ZM338.04,446.04l.04,21.44,80.84.16.56,31.62,65.2-69.13-65.36-69.26-.49,31.81-80.75.06v21.52l78.78.07.21,31.56-79.02.16h-.01Z"/>
    <polygon class="st5" points="599.85 470.32 561.37 429.88 599.96 389.33 599.85 470.32"/>
    <polygon class="st0" points="350.65 280.21 313.34 280.51 331.93 235.39 350.65 280.21"/>
    <polygon class="st0" points="338.04 446.04 417.06 445.88 416.86 414.33 338.08 414.26 338.08 392.74 418.83 392.68 419.32 360.87 484.68 430.13 419.47 499.26 418.92 467.64 338.07 467.49 338.04 446.04"/>
  </g>
  <g id="Layer_2">
    <g>
      <path class="st2" d="M354.25,208.36c-12.83,11.04-24.79,22.99-34.91,36.86-26.28,36.02-38.74,80.23-35.45,124.45,3.94,52.98,29.59,100.22,70.34,133.26-33.75,27.28-77.4,41.27-120.9,39.95-98.87-2.99-178.24-82.68-181.23-181.48-1.59-52.56,18.84-103.25,56.46-139.91,33.34-32.49,77.66-51.5,124.41-53,43.76-1.4,87.23,12.61,121.28,39.87Z"/>
      <path class="st4" d="M355.24,502.91c42.11-33.48,67.99-82.86,70.83-137.12,2.08-39.72-8.41-79.27-30.26-112.68-11.2-17.12-25-31.7-40.38-44.75,56.73-45.21,135.96-52.66,200.62-19.23,36.14,18.69,65.28,48.62,83.02,85.23,13.12,27.07,19.37,56.92,18.51,86.95-1.41,49.29-22.25,95.84-57.72,129.8-67.24,64.36-171.94,69.43-244.62,11.8Z"/>
      <path class="st6" d="M355.43,208.36c15.37,13.05,29.18,27.62,40.38,44.75,21.85,33.41,32.34,72.96,30.26,112.68-2.84,54.27-28.72,103.65-70.83,137.12l-1.01.02c-40.75-33.04-66.4-80.28-70.34-133.26-3.29-44.22,9.17-88.43,35.45-124.45,10.12-13.87,22.08-25.81,34.91-36.86.54.13.87.08,1.18,0Z"/>
    </g>
  </g>
</svg>